<svg version="1.2" xmlns="http://www.w3.org/2000/svg" viewBox="0 0 219 190" width="219" height="190">
	<title>handholdsbook</title>
	<style>
		.s0 { opacity: .96;fill: #229799 } 
	</style>
	<path id="Path 0" fill-rule="evenodd" class="s0" d="m87.8 4.6c4.8 1.3 14.1 4.2 20.7 6.5 6.6 2.2 13.3 4.8 15 5.6 1.7 0.9 5 3 12 8.1l21.5 1.1c11.8 0.6 25.6 1.6 30.5 2.2 4.9 0.5 9.4 1.4 10 2 0.6 0.5 1.8 0.9 2.8 0.9 1.2 0 1.7 0.8 1.7 3 0 1.6-2 15.5-4.5 30.8-2.5 15.2-6.2 36.7-8.1 47.7-2 11-4.2 20.6-4.8 21.3-0.6 0.7-1.9 1.3-2.8 1.2-1 0-2.1-0.6-2.5-1.3-0.6-0.9-0.4-0.9 0.7-0.2 1.1 0.7 1.3 0.7 0.7-0.3-0.4-0.6-1.3-1-1.9-0.7-0.7 0.3-7.4-1.1-14.8-3.1-7.4-2-14.2-3.8-15-4-1.1-0.4-1.4 0.3-1.2 2.6 0.1 2.2-0.4 3.3-1.8 4-1.1 0.6-3.1 0.8-4.5 0.5-2.4-0.5-2.5-0.4-1.9 3.7 0.5 2.8 0.3 4.6-0.5 5-0.6 0.5-1.9 0.4-2.8-0.2-1-0.5-2.5-2.4-3.3-4.2-1.1-2.4-2.5-3.5-5.7-4.5-4.1-1.2-4.5-1.1-8 1.3-2.1 1.4-4.9 4.2-6.3 6.1-1.7 2.3-4.9 4.6-9.5 6.8-3.8 1.8-7.8 4.2-8.7 5.4-1 1.2-1.6 2.5-1.3 3.1 0.3 0.6-0.8 2.8-2.5 5-1.7 2.2-3 4.6-3 5.2 0 0.7-2 4-4.5 7.3-2.5 3.3-4.5 6.3-4.5 6.7 0 0.5-0.6 0.6-1.2 0.4-0.7-0.2-1.4 0.5-1.5 1.5-0.2 1.1 0.5 2.2 1.5 2.5 0.9 0.4 2.6 0.4 3.7 0.1 1.1-0.3 6-3.3 11-6.6 5-3.3 11-6.7 13.5-7.6 2.5-0.8 6-1.5 7.8-1.5 1.9 0 6.8 1.9 12 4.6 4.8 2.6 11.2 5.9 14.2 7.5 3 1.5 8.9 3.5 13 4.5 6.3 1.5 8.6 1.6 14.5 0.6 3.8-0.6 9.5-2 12.5-3.2 3-1.1 6.8-3.2 11.5-6.9l-3.2-0.1c-1.8 0-5-0.7-7-1.6-2.1-0.8-4.8-2.5-6.1-3.7-1.4-1.4-2.2-3.4-2.2-5.5 0-2.5 0.6-3.5 3-4.7 1.7-0.8 3.8-1.5 4.8-1.5 0.9 0 3.9 0.8 6.6 1.7 2.8 1 6 3.1 7.4 4.8 1.6 2 2.3 3.9 2.1 5.7-0.3 2 0 2.8 1.1 2.8 0.8 0 3.5-0.6 6-1.4 2.5-0.7 6.6-2.4 9.3-3.7 2.6-1.3 5-2.1 5.2-1.7 0.3 0.5-1 1.7-2.7 2.8-1.8 1.1-6.2 2.9-9.8 4-3.6 1.1-7.6 2-9 1.9-1.4 0-3.2 0.8-4 1.7-0.8 0.9-3.3 2.7-5.5 3.9-2.2 1.3-6.9 3.3-10.5 4.5-4.3 1.4-9.1 2.2-14 2.2-4.3 0.1-10.1-0.7-13.5-1.6-3.3-1-12-4.9-19.2-8.7-9.1-4.7-14.4-6.9-16.8-6.9-1.9 0-5.4 0.8-7.7 1.7-2.4 0.9-8.3 4.3-13.3 7.6-4.9 3.3-10.3 6.2-12 6.5-1.9 0.3-3.5-0.1-4.5-1.1-1.3-1.3-1.7-1.3-3 0-0.9 0.9-2.5 1.2-4 0.9-1.4-0.3-4.3-2-6.4-3.8-2.1-1.8-6-5.1-8.5-7.2-2.5-2.2-8-6.1-12.1-8.8-4.1-2.7-9.1-5.3-11-5.8-1.9-0.6-5.5-1-8-1-2.7 0-6.7 1-10 2.6-3 1.4-6.5 3.5-7.7 4.7-1.3 1.2-2.6 1.8-3 1.4-0.5-0.5 0.3-1.8 1.7-2.9 1.4-1.2 5.4-3.4 9-5.1 5.8-2.7 7.2-3 13-2.4 4.9 0.5 7.9 1.5 12.5 4.2 5.2 3 5.6 3.2-0.5-2l4.8-4.6c2.6-2.5 8-7.4 12-10.7 5.1-4.4 7.7-6 8.8-5.5 1.1 0.5 2.4 0 4-1.5 1.3-1.2 3.1-2.2 4.1-2.2 1.1 0.1 5-3.7 9.6-9 4.2-4.9 8.3-9 9-9 0.6 0 1-0.2 0.7-0.4-0.3-0.3-7.7-1.5-16.5-2.6-8.8-1.2-17-2.3-18.2-2.5-1.7-0.4-2.3-1.2-2.3-3 0-1.4-0.7-2.7-1.5-3-1.1-0.4-1.4-1.5-1-4.3 0.3-2 2.9-14.7 5.6-28.2 2.8-13.5 7.1-33.5 9.6-44.5 2.5-10.9 5.1-20.3 5.7-20.7 0.6-0.5 1.9-0.6 2.9-0.3 1.2 0.4 1.6 0 1.5-1.3-0.1-1 0.4-2.3 1-2.9 0.9-0.8 3.6-0.5 10 1.3zm-8.6 4.4c0 1.9-1.8 11.1-4.1 20.5-2.2 9.3-7.4 30.9-11.6 48-4.2 17.1-7.2 31.3-6.8 31.7 0.4 0.4 8.2 1.5 17.3 2.6 9.1 1.1 20.8 1.9 26 1.8 9.3-0.1 9.6-0.2 15.5-4.1 5.4-3.6 6-4.3 5.7-7-0.2-1.7 0.6-9.8 1.8-18 1.2-8.3 2.3-16.1 2.6-17.5 0.2-1.4 1.6-9.5 3-18 1.4-8.5 3.2-17.3 3.9-19.5 1.2-3.7 1.2-4.1-0.8-5.7-1.2-0.9-5.4-3.2-9.2-5.1-3.8-1.9-12-5-18-7-6-2-14.1-4.5-17.8-5.5-3.8-1.1-7-1.7-7.2-1.4-0.2 0.4-0.3 2.3-0.3 4.2zm-10.7 19.5c-1.4 6.6-5.5 25.8-9.1 42.7-3.5 17-6.4 31.4-6.4 32 0 0.7 0.2 1.1 0.4 0.8 0.3-0.3 3.2-12.4 6.6-27 3.4-14.6 8.4-35.7 11.1-47 2.7-11.3 4.9-20.6 4.9-20.8 0-0.1-0.7-0.2-1.5-0.2-0.8 0-1.9 1.6-2.4 3.7-0.6 2.1-2.2 9.2-3.6 15.8zm64 23.5c-2 11.8-4.7 27.8-6.1 35.5-1.4 7.7-2.3 14.4-2.1 15 0.2 0.5 0.8-1.5 1.5-4.5 0.6-3 4.1-19 7.7-35.5 3.7-16.9 7.3-30.7 8.1-31.5 1.3-1.3 4.1-1.3 23.4-0.3 12.1 0.7 22.7 1.5 23.5 1.8 1 0.3 1.5 1.8 1.5 4.2 0 2.1-1.1 12.8-2.5 23.8-1.4 11-3.6 27-5 35.5-1.3 8.5-2.7 17.5-3.2 19.9-0.4 2.4-1.2 4.6-1.8 4.8-0.6 0.3-5.7-0.7-11.5-2-5.8-1.4-14.1-3-18.5-3.6-4.4-0.6-9.1-1.1-10.5-1-1.9 0.1-1.4 0.5 2 1.5 2.5 0.8 8.8 2.6 14 4 5.2 1.4 12.3 3.4 15.8 4.4 3.4 1.1 6.2 2.4 6.2 3 0 0.5-1 1-2.2 1-1.3 0-5.2-0.7-8.8-1.5-3.6-0.8-6.6-1.4-6.7-1.3-0.2 0.2 4.6 1.5 10.5 3.1 5.9 1.5 10.8 2.6 10.9 2.5 0.2-0.2 3.9-20.8 8.3-45.8 4.4-25 8.3-47.3 8.6-49.5 0.6-3.8 0.5-4-2.2-4.7-1.6-0.4-10.8-1.2-20.4-1.8-9.6-0.6-22.1-1.5-27.8-1.8-10.1-0.7-10.3-0.7-9.7 1.3 0.3 1.1-1 11.7-3 23.5zm9.7-17.9c-0.5 1.3-2.6 9.8-4.6 18.9-2 9.1-5.3 23.9-7.2 33-2 9.1-4 17.3-4.5 18.2-0.8 1.5-0.4 1.8 2.1 1.8 1.9 0 3.2 0.6 3.6 1.7 0.4 1-0.1 3.3-1 5-0.9 1.8-1.6 3.5-1.6 3.8 0 0.3 1 0.5 2.3 0.5 1.8 0 1.9 0.2 0.7 1.1-1.2 0.8-1 0.9 1 0.5 1.4-0.3 3.2-0.6 4-0.7 0.8 0 0.2-0.7-1.5-1.4-1.7-0.7-3.1-2.2-3.2-3.2-0.2-1.7 0.4-1.7 7.5-1.1 4.2 0.4 8.5 0.9 9.5 1.2 1.4 0.5 1.7 0 1.7-2.9 0-3-0.5-3.7-3.5-5-1.9-0.8-4.2-2.5-5-3.8-0.9-1.2-1.5-3.1-1.3-4.2 0.2-1 1.6-2.6 3.1-3.5 2.7-1.4 2.9-1.4 4.8 1.2 1.1 1.7 3.2 3 5.2 3.4 1.7 0.3 4.4 0.1 6-0.5 1.9-0.8 2.7-1.8 2.7-3.6 0-1.4-0.6-3.1-1.2-3.8-0.7-0.7-3.5-2-6.3-2.9-3-1-6.3-3.1-8.2-5.2-2.8-3-3.2-4.1-2.7-6.9 0.4-1.7 1.2-4 1.8-4.9 0.6-1 2.5-2.6 4.3-3.5 1.7-1 3-2.1 2.7-2.6-0.2-0.4-0.2-2.3 0.1-4.2 0.5-3.5 0.5-3.5 5.3-3.3 4.7 0.3 4.7 0.3 4.6 3.8-0.1 3.2 0.2 3.6 4 5 3.1 1.1 4.2 2.1 4.4 4 0.2 1.4-0.3 3.3-1 4.3-1.1 1.5-1.8 1.6-4 0.8-1.6-0.6-5.3-1.1-8.3-1.1-3.4 0-5.8 0.5-6.2 1.2-0.3 0.8 0.4 2.1 1.8 3.1 1.3 1 4.7 2.4 7.4 3.2 2.8 0.8 6 2.4 7.2 3.7 1.3 1.3 2.7 3.6 3.2 5.3 0.5 1.7 0.6 4.7 0.1 7-0.5 2.2-1.9 4.8-3.2 5.8-1.3 1-3.8 2-5.5 2.2-2.7 0.4-3.3 0.9-3.3 3 0 1.4-0.4 3.3-0.9 4.2-0.9 1.6 0.1 2.1 8.2 4.1 5.1 1.3 9.3 2.2 9.5 2 0.1-0.2 1.6-8.9 3.2-19.3 1.6-10.5 4.1-28 5.5-39 1.4-11 2.5-21.4 2.5-23 0-3 0-3-7.2-3.7-4-0.4-14.1-1-22.4-1.4l-15.1-0.7zm54.6 4.9c-0.6-1.8-0.7-1.2-0.4 1.7 0.3 2.6-1.5 17-4.5 36-2.8 17.5-6.1 37.3-7.3 44-1.2 6.8-1.8 12.3-1.4 12.3 0.4 0 1.6-5.1 2.7-11.3 1.1-6.1 4.7-27.6 8-47.7 3.3-20.1 6.1-37.5 6.3-38.7 0.1-1.3-0.1-2.3-0.5-2.3-0.4 0-1.1 1.9-1.4 4.2-0.7 3.9-0.8 4.1-1.5 1.8zm-41.9 24c0 0.5 1 1 2.3 1 1.2 0 2.7 0.4 3.2 0.9q1 1 1.1-2.5c0-3-0.3-3.4-2.7-3.4-1.5 0-3 0.7-3.3 1.5-0.3 0.8-0.6 1.9-0.6 2.5zm-5.9 7.5c-1.1 1.1-2.3 3.5-2.5 5.2-0.5 2.7 0 3.8 2.2 6 1.6 1.6 4.9 3.4 7.3 4.1 2.4 0.8 5.5 2.4 6.7 3.5 1.3 1.2 2.3 3.3 2.3 4.7 0 1.4-0.8 3.2-1.8 4.1-1 0.9-2.9 2-4.3 2.4-1.3 0.3-3.6 0.4-5 0.1-1.3-0.3-3.6-1.7-5-3.1-1.5-1.5-3.2-2.3-4.2-2-1 0.3-1.8 1.4-1.8 2.5 0 1.2 1.5 3 3.8 4.4 3.5 2.3 4.3 2.4 11.2 1.6 4.2-0.4 8.3-1.1 9.3-1.4 0.9-0.3 2-1.6 2.4-2.9 0.3-1.2 0.6-3.8 0.7-5.7 0-1.9-0.7-4.7-1.7-6.3-1.1-1.8-3.2-3.1-6.4-4.1-2.6-0.7-6.1-2-7.8-2.8-1.6-0.8-3.3-2.4-3.7-3.4-0.5-1.2-0.2-2.6 0.6-3.8 1.3-1.7 2.3-1.8 10-1.2 8.2 0.6 8.6 0.5 8.6-1.4 0-1.2-1-2.4-2.5-3-1.3-0.6-3.3-0.9-4.2-0.9-1 0.1-4.1 0.5-7 0.8-3.2 0.4-6 1.4-7.2 2.6zm-35.2 42.7c0.1 0.4 1.7 0 3.5-1 1.9-0.9 3.9-2.5 4.5-3.5 0.5-0.9 0.9-1.7 0.8-1.7-0.1 0-2.1 1.2-4.5 2.7-2.4 1.5-4.3 3.1-4.3 3.5zm3.1 0.7c-2.9 1.9-5.2 3.8-5.1 4.2 0.1 0.5-1.3 1.6-3.1 2.5q0-0.3-0.8-0.7-0.3-0.2-0.6-0.3c1.8 0.4 1.8 0.3 0.4-0.6-1-0.5-4.6-1.4-8-2l-6.3-0.9c-12.1 12.7-16 17.1-16.4 17.9-0.6 1.1 1.3 3.9 6.8 10.2l7.6 8.7c3.1-3.7 6.7-6 10-7.4 3.8-1.7 7.9-4.6 11.1-7.8 2.8-2.9 6.2-6.2 7.7-7.5 1.5-1.2 2.5-2.7 2.2-3.2-0.2-0.6 0-1 0.5-1 0.6 0 1.2 0.8 1.4 1.7 0.2 1.1 1.9 2.3 4.5 3 3.2 1 4.5 2 5.6 4.8 0.9 1.9 2 3.7 2.5 4 0.6 0.3 1-0.4 1-1.5 0-1.1-0.4-3-0.8-4.3-0.6-1.4-2.8-3-6.5-4.5-3.1-1.2-5.7-2.7-5.7-3.2q0 0 0-0.1c0.2 0.5 1.3 1.2 2.5 1.8 1.4 0.7 3.5 1 4.8 0.7l2.1-0.6c0.8 0.6 1.3 1 1.2 1.2-0.2 0.3 0.6 0.6 1.8 0.8 1.2 0.1 3.5 0.4 5.1 0.5 2.4 0.1 3.1-0.3 3.3-1.8 0.3-1.7-1.2-2.5-10.6-5.5-6-1.9-10.8-3.3-10.6-3 0.2 0.3-1.3 2.2-3.4 4.4-2 2.1-4.2 3.5-4.9 3.2-0.7-0.3-1.6 0-2 0.6q-0.7 1.2 0.4 0.6-0.1 0.1-0.1 0.2c-0.3 0.4-0.8 0.7-1.4 0.8 0.4-0.5 0.6-0.8 0.3-0.8-0.2 0.1-1 0.4-1.9 1-1.5 0.6-4.2 2.1-6.9 4 3.5-2.4 8.4-6.6 11.3-9.6 3.1-3.1 6.7-6.1 8-6.7 1.4-0.5 2.9-1 3.3-0.9 0.4 0.1 0.6-0.1 0.5-0.6-0.1-0.4 0.4-2.2 1.2-4 1.1-2.2 1.2-3.6 0.5-4.2-0.7-0.6-2.1-0.3-4.1 0.8-1.7 0.9-5.4 3.2-8.4 5.1zm-3.8 15.9q-0.4 0.3-0.9 0.8c-0.8 0.5-1.8 1.2-2.8 1.9q-0.5 0.4-0.9 0.8c-1.5 1-2.7 1.7-3.1 1.7-0.5 0 0.8-1.3 3-2.9 1.1-0.8 2.2-1.5 3.1-2.1q0.8-0.3 1.1-0.3 0.2 0.1 0.5 0.1zm-2.7 2.1q-1 0.8-1.9 1.4c-1.1 1-1.8 1.7-1.6 1.7 0.3 0 2.1-1.1 4-2.5 2-1.4 3.1-2.5 2.5-2.5-0.2 0-0.7 0.2-1.2 0.6q-0.8 0.6-1.8 1.3zm16.5-6.9q0.3 0 0.7 0.1-0.2-0.1-0.4-0.1-0.8 0-1.3 0.2 0.4-0.2 1-0.2zm0.7 0.1c1.2 0.1 3.3 0.8 6.8 2.7h-0.1c-0.6-0.3-1.2-0.7-1.9-1.1-1.6-0.8-3.6-1.4-4.8-1.6zm-18.9-4.5c0 0.3-0.6 0.6-1.8 0.9q-0.2 0-0.4 0.1c0.6-0.2 1.3-0.5 2-0.9q0.1 0 0.2-0.1zm-4.2 1.1q-0.1 0-0.1 0c0.4 0.1 1.2 0.1 2.1-0.1-1 0.3-1.9 0.4-2 0.1zm-0.1-1.7q0.1-0.1 0.2-0.2-0.1 0.1-0.1 0.2-0.1 0.2-0.2 0.5 0-0.3 0.1-0.5zm0.2-0.2c0.3-0.5 0.8-0.8 1.1-0.8 0.3 0 1 0.3 1.6 0.6q-0.1 0-0.1-0.1c-1.1-0.2-2.1-0.1-2.6 0.3zm10 9c0.3-0.5 0.7-0.8 0.9-0.8 0.2 0 0.5 0.1 0.5 0.2 0-0.1-0.6 0.1-1.3 0.5q-0.1 0.1-0.1 0.1zm-10.3 8.2c-0.1-0.2 0-0.7 0.4-1.3q0.2-0.3 0.2-0.4 0 0 0-0.1 0 0.2-0.2 0.6c-0.4 0.5-0.5 1-0.4 1.2zm0.6-2c0.1 0-0.5 0.1-0.7 0.2q0.6-0.3 0.7-0.2c0-0.1 0.4 0 0 0.2q0.1-0.1 0-0.2zm-0.7 0.3c-0.7 0.4-1 1.1-0.8 1.7-0.2-0.6 0.1-1.3 0.8-1.8q0 0 0 0 0 0 0 0.1zm-0.2-0.9q0.3-0.2 0.6-0.4 0 0 0 0-0.2 0.1-0.4 0.3-0.1 0-0.2 0.1zm50.5-20.7c1 0.5 1.9 0.2 2.5-0.7 0.5-0.8 0.8-2.2 0.7-3.1 0-0.9-1.2-1.9-2.6-2.1-2.2-0.5-2.5-0.2-2.3 2.3 0.1 1.6 0.8 3.2 1.7 3.6zm-46.2 3.4c0.7 1.1 1.1 1.1 1.8-0.4 0.4-0.9 0.7-1.9 0.5-2.1-0.2-0.3-1-0.1-1.7 0.3-1 0.6-1.2 1.3-0.6 2.2zm35.6 2.8c1 0 0.8-0.4-0.5-0.9-1.1-0.5-2.6-0.9-3.5-0.9-0.9 0-0.7 0.4 0.5 0.9 1.1 0.5 2.7 0.9 3.5 0.9zm-39.9 14.5c-3.4 2.3-6.1 4.7-6.1 5.3 0-0.6 2.7-3 6.1-5.3zm0.3 2.6q0.1 0 0.1 0 0 0-0.1 0zm-0.1-1.8q0 0 0 0 0 0 0 0zm-37.8 6l20.6 20.3c4.3-4.2 4.7-5.1 3.8-5.2-0.8-0.2-4.4-3.8-8-8-3.7-4.3-7.8-8.8-9.1-10.1l-2.4-2.2zm-9.8 3.6c-2.9 2.5-7.5 6.7-10.3 9.3-2.8 2.6-5.1 5-5.2 5.4-0.1 0.3 3.7 3.4 8.6 6.9 4.8 3.5 10.8 7.7 13.5 9.5 2.6 1.7 5.3 3.1 6 3.1 0.6 0 3.4-2.1 6-4.7 3.3-3.3 5-4.4 5.5-3.5 0.5 0.9 1.4 0.3 3-1.8 1.2-1.6 2.1-3.4 2-3.9-0.2-0.5-5.6-6.3-12.1-12.9l-11.9-11.9zm118.2 19.3c0.1 1 0.6 2.8 1.2 3.9 0.5 1.1 2.9 2.7 5.2 3.5 2.4 0.8 6 1.7 8 2 3.3 0.5 3.9 0.2 5-2 0.9-1.8 1-3.1 0.2-4.7-0.6-1.3-2.9-3.1-5-4.2-2.2-1-5.5-2-7.4-2.2-2-0.3-4.4 0.1-5.5 0.6-1 0.6-1.8 2-1.7 3.1zm-119.8 9c3.4 2.4 3.8 2.5 1.5 0.5-1.7-1.4-5.1-4-7.5-5.7-3.5-2.3-3.8-2.4-1.5-0.5 1.6 1.5 5 4 7.5 5.7zm9.2 7.6c2.4 1.8 4.9 3.3 5.8 3.3 0.8 0.1 2.2-0.7 3.2-1.7 0.9-1 1.7-2.7 1.8-3.8 0-1.9-0.1-1.9-2.3 0.3-1.2 1.2-2.9 2.2-3.7 2.2-0.9 0-3.2-1.1-5.2-2.5-2-1.4-3.7-2.2-3.7-1.8-0.1 0.5 1.8 2.3 4.1 4zm40.1-60.2c-0.1 0.4 0 0.9 0.2 1.2q-0.2 0-0.3-0.1c-0.1-0.2 0-0.7 0.1-1.1zm21.6 4.7c-0.5 0.1-0.9 0.4-0.9 0.7q-0.1-0.1-0.1-0.1c0-0.3 0.4-0.5 1-0.6z"/>
</svg>