<svg version="1.2" xmlns="http://www.w3.org/2000/svg" viewBox="0 0 839 360" width="839" height="360">
	<title>360_F_515512038_PTovzjlZHtotNPVpFcbW2mZ81ALapcqw (1)</title>
	<style>
		.s0 { opacity: .94;fill: #229799 } 
	</style>
	<path id="Path 0" fill-rule="evenodd" class="s0" d="m749.8 58.1c1.5-0.1 2.2 0.5 2.2 1.6 0 1.4-3.8 3.3-16.2 8.1-9 3.5-19 7.4-22.3 8.6-3.3 1.3-19.2 7.4-64.5 25.1v18.7c0 10.4 0.2 18.8 0.5 18.8 0.3 0 1.7-0.8 3.1-1.8 1.4-0.9 4.5-5.2 6.8-9.6 2.2-4.3 6.8-10.8 10.2-14.5 3.3-3.6 9-8.5 12.5-10.8 3.5-2.3 22.8-13.2 42.9-24.2 20.7-11.4 36.8-19.7 37.1-19.1 0.3 0.6-0.1 2.5-0.9 4.3-0.9 1.7-6.6 11.3-12.7 21.2-6.1 9.9-16.7 27.1-23.6 38.2-6.8 11.1-13.1 20.3-13.9 20.5-0.8 0.2-8.8-4.5-17.7-10.4-9-5.9-16.7-10.9-17.2-11.1-0.5-0.1-4.8 3-9.4 6.8-7.5 6.2-8.9 7.9-12.7 15.5-2.3 4.7-6.6 12.1-9.5 16.5-2.9 4.4-7.9 10.6-11.1 13.9-3.3 3.2-8.6 7.7-11.9 9.9-3.3 2.2-9.6 5.8-14 7.8-4.4 2.1-12.7 5-18.5 6.4-8.6 2.2-13.6 2.8-27.5 3.2-12.9 0.4-19.8 0.1-28.5-1.1-6.3-1-16-2.8-21.5-4.1-5.5-1.4-14.9-4-21-5.9-6-1.9-14.6-4.4-19-5.5-4.4-1.1-11.8-2.5-16.5-3.1-4.7-0.5-12.2-1-16.7-1-4.6 0-11.8 0.5-16 1.1-4.3 0.5-12.1 2.1-17.3 3.5-5.2 1.4-14 4.7-19.5 7.3-5.5 2.6-12.9 6.7-16.5 9.1-3.6 2.5-9.6 7.4-13.3 11-3.7 3.6-6.8 6.7-6.7 7 0 0.3 2.6 2.1 5.7 4 3 1.9 7.6 5.5 10.1 8 2.4 2.5 5.1 6.1 5.8 8 0.8 1.9 1.4 5.2 1.4 7.2 0 2.1-0.8 5.5-1.9 7.5-1 2.1-3.6 5-5.7 6.5-2.2 1.5-5.7 3.1-7.9 3.6-2.2 0.5-5.8 0.7-8 0.3-2.2-0.4-5.2-1.4-6.7-2.4-1.6-0.9-4-3.6-5.5-6-2.2-3.4-2.7-5.3-2.6-9.7 0.1-3 0.9-7.5 1.8-10 0.9-2.5 3.3-7.1 9-15.8l-2.5-1c-1.4-0.6-4.7-1.8-7.5-2.7-3.2-1.1-9.5-1.9-17.5-2.3-9.5-0.3-14.6 0-21 1.3-4.7 0.9-12.8 3.2-18 5.1-5.2 1.9-13.8 5.8-19 8.6-5.2 2.8-13.5 7.8-18.5 11.1-4.9 3.3-13.9 9.9-20 14.7-6 4.9-14.6 11-19 13.8-4.4 2.7-11.1 6.5-15 8.4-3.8 2-11 5.1-16 7.1-4.9 2-14.4 5.2-21 7.1-6.6 1.9-17.2 4.3-23.5 5.5-6.3 1.1-16.2 2.5-22 3.1-5.8 0.5-14.4 1-19.2 1-6.6 0-8.7-0.3-8.5-1.3 0.2-0.7 2.5-1.3 6.3-1.4 3.2 0 10.9-0.4 16.9-0.7 6.1-0.3 16.4-1.5 23-2.6 6.6-1.1 15.6-3 20-4.1 4.4-1.2 12.7-3.7 18.5-5.6 5.8-1.9 16.1-6.3 23-9.7 6.8-3.3 15.4-8.1 19-10.5 3.6-2.4 11.7-8.5 18-13.4 6.3-5 15.6-11.7 20.5-14.9 5-3.2 13.3-8.1 18.5-10.8 5.2-2.6 13.3-6.3 18-8 4.7-1.7 11.4-3.8 15-4.5 3.6-0.8 10.1-1.7 14.5-2.1 4.9-0.4 11.3-0.2 16.5 0.6 4.7 0.6 11.7 2.3 22.5 6.1l5.5-5.7c3-3.1 8-7.5 11-9.9 3-2.3 8.7-6 12.5-8.3 3.9-2.2 10.8-5.6 15.5-7.5 4.7-1.9 12.8-4.5 18-5.8 8.4-2.1 11.8-2.4 29.5-2.4 15.7 0 21.8 0.4 28.5 1.8 4.7 1.1 14.6 3.9 22 6.3 7.4 2.4 19.6 5.7 27 7.4 7.4 1.6 19.1 3.5 26 4.1 6.9 0.6 17 0.9 22.5 0.6 5.5-0.4 13.6-1.3 18-2.2 4.4-0.8 11.6-2.8 16-4.3 4.4-1.5 11.6-4.8 15.9-7.2 4.3-2.5 11-7.4 14.9-11 3.8-3.6 8.9-9.2 11.2-12.5 2.3-3.3 6-9.4 8.3-13.5 2.3-4.1 4.2-7.9 4.2-8.5 0-0.6-0.5-0.4-1.2 0.2-0.7 0.7-1.6 1.3-2 1.3-0.4 0-1.5-0.7-2.3-1.5-1.2-1.2-1.5-4.9-1.5-19.8 0-13.1 0.3-18.7 1.2-19.9 0.7-1 12.6-6.1 26.3-11.4 13.8-5.3 35.1-13.7 47.5-18.5 12.4-4.9 21.7-8.9 20.8-8.9-1 0-26 3.6-55.5 8-29.6 4.4-57.2 8.5-61.3 9.1-4.1 0.7-8 1.5-8.5 2-0.6 0.4 5.2 3.8 13.5 8 8 3.9 14.7 7.3 15 7.5 0.3 0.2 0.2 0.7-0.3 1.1-0.4 0.5-7.2-2.4-15.2-6.2-10-4.8-14.7-7.6-15.1-9-0.3-1.1 0-2.6 0.8-3.2 0.7-0.7 11.9-2.9 24.8-4.8 12.9-1.9 32.5-4.9 43.5-6.5 11-1.7 27.9-4.2 37.5-5.6 9.6-1.4 19.5-2.9 22-3.4 2.5-0.4 5.5-0.8 6.8-0.9zm-60.8 42.7c-4.7 2.7-10.7 7-13.5 9.4-2.7 2.5-7.2 7.7-10 11.6-2.7 4-4.8 7.4-4.5 7.6 0.3 0.2 3.3-2 6.8-5 3.4-3 6.9-5.4 7.7-5.4 0.8 0 8.9 5.1 18 11.2 10.6 7.3 16.8 10.9 17.4 10.3 0.5-0.6 6.9-10.7 14.2-22.5 7.3-11.8 17.9-29.2 23.6-38.5 5.7-9.3 10.2-17.1 10-17.1-0.2-0.1-14 7.4-30.8 16.7-16.7 9.2-34.2 19-38.9 21.7zm-351 136.9c-1.1 2.9-2 7.2-2 9.5 0 2.6 0.9 5.9 2.3 8.2 1.2 2.1 3.8 4.7 5.7 5.7 1.9 1.1 5.1 1.9 7 1.9 1.9 0 5.1-0.5 7-1.1 1.9-0.7 5-2.6 6.8-4.3 1.8-1.7 3.8-4.7 4.4-6.6 0.8-2.5 0.8-4.6 0-7.5-0.6-2.3-3.1-6.3-5.9-9.4-2.6-2.9-7-6.6-9.8-8.2-2.7-1.6-5.6-2.9-6.3-2.9-0.7 0-2.6 2.1-4.2 4.7-1.7 2.7-3.9 7.2-5 10z"/>
</svg>