<svg version="1.2" xmlns="http://www.w3.org/2000/svg" viewBox="0 0 531 345" width="531" height="345">
	<title>360_F_498707745_dazpz8k5NVxbV3scIHynl464Ym79lxzd</title>
	<style>
		.s0 {fill: #229799 } 
	</style>
	<path id="Path 0" fill-rule="evenodd" class="s0" d="m-3 177v180l87.5-0.5-86.5-0.5v-17c67-0.3 93-0.5 101-0.6 8-0.1 15.1-0.2 15.8-0.3 0.6 0 1.2-0.4 1.2-0.9 0-0.4-1.6-2.5-3.5-4.7-1.9-2.2-3.8-4.9-4.1-6-0.4-1.1-0.4-2.8 0-3.8 0.5-1.3 1.8-1.7 6.3-1.7 3.2 0 10.7 0.5 16.8 1 6.1 0.5 29.2 2.2 51.5 3.8 22.3 1.6 41.6 3 43 3 1.4 0.1 7.2 0.4 13 0.7 6.3 0.4 11.6 0.2 13.2-0.5 1.6-0.5 2.6-1.3 2.4-1.7-0.2-0.5 0.5-0.8 1.7-0.8 1.3 0 3.2-1.6 5.1-4.3l3.1-4.4c-0.4-20.4-0.8-27.2-1.2-28.3-0.5-1.9-0.5-1.9 1.3-0.3 1.1 1 3.1 1.8 4.6 1.8 1.6 0 3-0.6 3.3-1.5 0.3-0.8 1.1-1.5 1.8-1.5 0.6-0.1 1.9 0.7 2.8 1.7 1 1 1.9 2.7 2 3.7 0.2 1 1.5 2.7 2.9 3.7 2.3 1.7 2.9 1.7 8.5 0.4 3.3-0.8 7.8-1.5 10-1.5 2.2 0 5.4 0.6 7 1.5 1.6 0.8 4.1 1.5 5.5 1.5 1.4 0 4.3-0.9 6.5-1.9 3.8-1.9 4.3-1.9 11-0.5 5.1 1.2 10.1 1.5 18.5 1.1 9.8-0.5 11.2-0.4 9.5 0.8-1.1 0.7-6.1 2.5-11 3.9l-9 2.7c-19.2-4-24.4-4.4-41-4.4-16.7-0.1-20.6 0.2-23.8 1.6-2 0.9-3.7 2.4-3.7 3.2 0 0.8 1 2.2 2.3 3 1.2 0.8 5.6 2.2 9.7 3.1 5.9 1.2 11.2 1.5 25 1.1 9.6-0.3 20.3-1.1 23.7-1.9 5.3-1.1 6.5-1.1 8.7 0.2 1.5 0.8 2.9 2.6 3.2 4 0.3 1.4 0.1 3.8-0.3 5.4-0.6 2-2.2 3.6-5.7 5.5-2.7 1.4-5.2 2.6-5.5 2.6-0.3 0-1.3 0.5-2.1 1-0.8 0.5-2.4 1-3.5 1-1.1 0-2.6 0.4-3.2 0.8-0.7 0.4-1.7 0.5-2.3 0.2-0.6-0.3-1.6-0.1-2.2 0.5-0.7 0.5-3.4 1.1-6.1 1.2-2.6 0.2-4.7 0.6-4.7 1 0 0.5-0.4 0.6-1 0.3-0.6-0.3-2.4-0.3-4 0q-3 0.5-2.2 1.7c0.5 0.9-0.1 1-2.3 0.4-1.6-0.4-4.8-0.6-7-0.6-2.2 0.1-4.2 0.3-4.5 0.6-0.3 0.2-0.1 0.7 0.3 1.1 0.5 0.5 22.8 0.8 49.5 0.7 36.1-0.1 48.8-0.4 49-1.2 0.1-0.7-1.3-1.8-3-2.6-1.8-0.7-4.8-2.7-6.7-4.2-1.9-1.6-3.8-4-4.3-5.4-0.5-1.4-0.6-3.3-0.3-4.3 0.3-0.9 2.1-2.4 4-3.2 1.9-0.8 5.5-1.5 8-1.5 4.1 0 4.5 0.2 4.5 2.5 0 1.6 1 3.3 2.8 4.5 1.5 1.1 3.9 2.3 5.5 2.5 1.5 0.3 3.6 0.1 4.7-0.5 1.1-0.6 2-2 2-3.2 0-1.3-0.5-2.9-1.2-3.6-1-1-1-1.2 0-1.2 0.6 0 2.1 1.2 3.2 2.8 1.2 1.5 2.1 3.9 2 5.5 0 1.6-1.1 3.7-2.7 5.2-1.6 1.4-4.3 3.2-6 4-1.8 0.8-3.3 1.9-3.3 2.5 0 0.6 0.8 1.2 1.8 1.5 0.9 0.3 12.1 0.5 24.7 0.3 12.6-0.1 43.8-0.1 69.3 0l46.2 0.2v17l-89.5 0.5 90.5 0.5v-360h-540zm1-179h538v337l-54.2 0.3c-29.9 0.1-59.5 0-65.8-0.3-8.2-0.4-11-0.8-9.9-1.5 0.9-0.6 2.1-2 2.8-3.2 0.6-1.3 1.1-3.9 1.1-5.8 0-2.9-0.9-4.4-5-8.5-3.2-3.2-6.2-5.2-8.2-5.6-1.8-0.3-4.3-0.1-5.5 0.5-1.3 0.6-5 1.1-8.3 1.1-3.3 0-7.5 0.6-9.2 1.3-1.8 0.8-4.3 2.7-5.6 4.3-1.2 1.6-2.3 4-2.2 5.4 0 1.4 0.8 3.7 1.8 5.2 0.9 1.5 2.7 3.4 4 4.3 1.2 0.8 2.2 1.8 2.2 2.3 0 0.4-12.7 0.7-28.3 0.8-15.5 0-27.3-0.3-26.2-0.7 1.1-0.4 4-1.1 6.5-1.4 2.5-0.3 7.4-2.1 11-3.8 3.5-1.8 7.3-4.5 8.5-6 1.1-1.6 2-4.4 2-6.2 0-1.9-1-4.7-4.5-9.5l5.8-1.6c3.1-0.9 7.1-2.3 8.7-3.1 1.6-0.8 4.6-3 6.5-4.9 2.3-2.2 5.7-4 10-5.3 3.6-1 8.1-2.6 10-3.4 1.9-0.8 6.2-3.5 9.5-6 4-3 6.8-6.1 8.5-9.3 1.9-3.8 2.5-6.4 2.4-11.4 0-3.9-1.3-11.9-3.3-20-1.9-7.4-3.6-14.2-3.9-15-0.3-0.8-0.7-2.3-0.9-3.2-0.1-1-0.3-1.9-0.4-2 0-0.2-0.2-1.2-0.4-2.3-0.2-1.1-1.3-6.7-2.5-12.5-1.1-5.8-2.3-13.9-2.5-18-0.3-4.1-0.7-8.2-1-9-0.4-1.2 1.2-1.6 9.3-2.1 7.4-0.5 11.4-1.3 16.7-3.5 4.8-2 8.9-4.6 13-8.5 3.3-3.1 7.4-8.3 9.2-11.5 1.7-3.2 3.9-9.1 4.8-12.9 0.9-3.8 1.5-9.7 1.3-12.9-0.2-3.7-0.8-6.1-1.5-6.3-0.7-0.2-2 1.4-2.8 3.5-0.9 2-2.6 5.2-3.8 7-1.2 1.8-4.4 4.5-7.2 5.9-3 1.6-7.4 2.8-11 3.1-3.6 0.3-7.6 0-10-0.8-2.2-0.8-4.9-2.2-6-3.2-1.7-1.7-2.1-3.7-2.6-16.1-0.4-8.1-1.2-15.5-2-17.2-0.7-1.7-2.9-5-4.8-7.4-2-2.4-4.8-5.1-6.4-6-1.5-0.9-2.7-2.5-2.7-3.6 0-1.1-0.9-4.7-2-8-1.2-3.3-3.4-7.8-4.9-10-1.5-2.2-4.3-6.1-6.2-8.7-1.9-2.6-3.7-4.7-4.1-4.7-0.5-0.1-3.2-2.2-6-4.7-2.9-2.5-7.5-6-10.1-7.8-2.6-1.7-4.7-3.4-4.7-3.8 0-0.5-0.6-1.4-1.3-2-0.7-0.7-3-3.5-5.1-6.3-2-2.7-5.9-6.7-8.4-8.9-2.6-2.1-6.5-4.9-8.7-6.1-2.2-1.3-6.5-3-9.5-3.9-3.1-0.9-9.2-1.6-14-1.6-5 0-11.6 0.8-16 1.9-4.1 1-10.4 3.1-14 4.5-3.6 1.5-9.2 3.3-12.5 4-3.3 0.8-7.3 2-9 2.9-1.7 0.8-4.4 3-6.1 4.9-1.8 1.8-3.7 4.3-4.3 5.6-0.6 1.2-1.1 4.2-1.1 6.7 0 2.5 0.6 6 1.3 7.8 0.8 1.7 3.1 4.7 5.3 6.5 3.5 2.9 3.8 3.4 2.7 5.2-0.7 1.1-1.3 3.1-1.3 4.5 0 1.4 0.5 3.5 1.1 4.8 0.9 1.7 0.8 3.1-0.5 6.5-0.9 2.3-1.6 6.5-1.6 9.2 0 2.9 1.3 8.9 3.1 14.3 3 9.2 3 9.2 1 10.5-1.2 0.6-2.8 3.3-3.6 6-0.8 2.6-3.1 7.1-5 10-1.9 2.8-3.5 6.2-3.5 7.5 0.1 1.2-0.6 2.9-1.5 3.7-0.9 0.8-1.5 2.4-1.5 3.5 0.1 1.7-0.2 1.8-1.5 0.8-1.2-1.1-2.1-1-4.5 0.2-1.7 0.8-4.6 3.2-6.6 5.3-2 2-4.6 5.5-5.9 7.7-1.3 2.2-3.2 7.8-4.3 12.5-1.1 4.7-2.6 11.8-4.7 23h-12l3.1-2.7c1.7-1.6 4-4.7 5.2-7 1.2-2.4 2.9-6.9 3.7-10 0.8-3.2 1.5-9 1.5-12.8 0-3.8-0.7-9.7-1.6-13-0.8-3.3-2.7-8.2-4.2-11-1.5-2.7-5.2-7.5-8.2-10.6-3-3.1-7.7-6.8-10.5-8.1-2.7-1.4-7.7-3.4-11-4.3-4.5-1.3-8.2-1.6-15-1.3-6.7 0.4-10.8 1.2-16 3.3-3.8 1.6-8.8 4-11 5.4-2.3 1.4-6.2 4.4-8.8 6.6-2.6 2.2-4.8 4.3-4.7 4.8 0 0.4-1.6 2.8-3.5 5.5-1.9 2.6-4.3 7.3-5.5 10.5-1.1 3.1-2 7.6-2 10 0 2.3 0.6 5.9 1.5 8 0.9 2.3 3.1 4.7 5.7 6.5 3.2 2.1 5.7 2.8 10.7 3.1 6.2 0.4 6.8 0.2 10.1-2.7 2.2-2 4.6-5.7 6.5-10.3 2.3-5.7 3.9-7.9 7-10.2 2.3-1.6 5.9-3.1 8.5-3.4 3.2-0.4 4.9-0.1 6 0.9 0.8 0.8 2.3 1.7 3.3 2.1 0.9 0.4 2.1 1.8 2.7 3.2 0.6 1.4 1 4.8 1 7.5 0 2.9-0.7 6.3-1.7 8.1-1 1.6-4.7 5-8.3 7.4-3.6 2.4-8.7 6.7-11.5 9.5-4.2 4.2-4.8 5.3-3.9 6.8 1 1.5 3.5 1.8 38.6 2.7l-5.9 4.3c-3.2 2.4-7.4 6.4-9.3 9-2.1 2.8-3.9 6.5-4.3 9-0.4 2.3-0.2 6.3 0.3 9 0.6 2.6 0.9 4.7 0.8 4.7-0.2 0.1-1.6 0.7-3.3 1.4-1.7 0.7-6.2 1.4-10 1.6-3.8 0.2-8.1 0.5-9.5 0.7-2.2 0.3-2.7-0.3-4.4-5.2-1.3-3.6-2-8.4-2-14.1-0.1-8.1 0.1-9.1 3.7-16 3.7-7 3.8-7.5 2-8.7-1.4-1-6.3-1.2-20.8-1-18.3 0.3-19.2 0.4-23 2.8-2.1 1.4-5.2 4.5-6.7 7-2.3 3.7-2.8 5.6-2.8 10.5 0 3.3 0.5 10.1 1.1 15 0.6 4.9 1 9.7 1.1 10.5 0 0.8 1.3 16.1 3 34 2.6 28.1 3.3 33.2 5.3 37.5 1.4 3 3.9 6.2 6.4 8 3.6 2.7 3.9 3.3 3.4 6.5-0.3 2.2 0 4.7 1.1 6.8 0.9 1.7 2.1 3.2 2.6 3.2 0.6 0 1.2 0.6 1.4 1.3 0.3 0.9-2.7 1.2-12.8 1.1-7.2-0.1-32.3-0.2-98.6-0.4v-168.5zm285 20.1c5.8-1.6 9.7-2 17-1.7 6.7 0.2 11 1 14.8 2.5 2.8 1.1 6.7 3.1 8.4 4.3 1.8 1.3 5 3.8 7.1 5.8 2 1.9 3.7 4.1 3.7 4.8 0 0.6 0.5 1.2 1.2 1.2 0.6 0 0.9 0.2 0.7 0.5-0.2 0.3-2.7-0.4-5.4-1.5-2.8-1.2-7.9-2.5-11.5-3-4-0.5-8.8-0.5-12.5 0.1-3.3 0.6-7.9 2-14.3 5.4l-0.9-3c-0.6-2.3-2.3-3.8-6.8-6.2-3.3-1.8-7.7-3.4-9.8-3.7-2-0.4-3.7-1-3.7-1.6 0-0.6 1-1.2 2.3-1.4 1.2-0.3 5.6-1.4 9.7-2.5zm-23.2 9.7c0.8-1 2.9-1.8 4.6-1.8 1.7 0 5.6 0.6 8.6 1.3 3 0.7 7.5 2.4 10 3.8 2.4 1.3 4.6 3.2 4.7 4.2 0.2 1.2-0.8 2-3.4 2.8-3 0.9-4.9 0.8-9.3-0.5-3-0.9-7.1-1.6-9-1.7-2 0-4 0.7-4.7 1.6-0.7 0.8-1.1 2.2-0.8 3 0.3 0.8 0.2 1.5-0.2 1.5-0.5 0-1.6-0.8-2.6-1.8-1-0.9-1.8-2.7-1.7-3.9 0-1.3 0.5-3.3 1.1-4.5 0.6-1.3 1.8-3.1 2.7-4zm-11.8 1.4c2.5-1.2 5-2.2 5.6-2.2q1.1 0-0.2 2.5c-0.8 1.4-1.4 3.9-1.4 5.5 0 1.6 0.4 3.9 1 5 0.7 1.5 0.7 2-0.2 2-0.7 0-2.3 1-3.5 2.2-1.3 1.3-2.7 4-3.3 6.1-0.6 2.1-1.5 3.6-2.2 3.4-0.7-0.2-2.1-1.9-3-3.8-1-1.9-1.8-5.2-1.8-7.4 0-2.5 0.8-5.3 2.2-7.5 1.3-1.9 4.3-4.5 6.8-5.8zm53 7.4c2.5-0.8 7.9-1.5 12-1.5 4.1-0.1 9.5 0.5 12 1.3 2.5 0.7 7 2.6 10 4.1 3 1.5 5.8 3.3 6.2 3.9 0.4 0.6 0.8 3.4 0.8 6.1 0 2.9-0.8 6.7-2 9-1 2.2-3.6 6-5.7 8.5-2.2 2.5-4.9 5.8-6.1 7.5-1.2 1.7-2.5 4.9-3.7 11.5l-3.8-2.7c-2.5-1.8-3.8-3.6-3.7-5 0-1.3-0.7-3.6-1.5-5.3-0.8-1.7-2.4-3.5-3.5-4-1.1-0.5-3.4-1-5-1-1.6 0-3.3 0.6-3.6 1.3-0.4 0.6-0.4 2.1-0.1 3.2 0.4 1.1 1.9 3.3 3.6 5 1.6 1.7 3.7 3.7 4.6 4.5 1.4 1.2 1.6 2.4 1.1 6-0.3 2.5-1.4 5.2-2.2 6-1.5 1.3-1.6 1.3-1.1-0.5 0.3-1.1 0.8-3.7 1.1-5.7 0.4-2.3 0.1-4.4-0.6-5.3-0.7-0.9-2.1-1.6-3-1.5-1 0-2.6 1.2-3.5 2.8-1.3 2.1-1.5 3.6-0.8 6.7 0.5 2.2 0.9 6.8 0.9 10.2 0.1 3.4-0.2 6.5-0.7 7-0.4 0.4-1.4-0.1-2.2-1.2-1.2-1.5-1.5-3.7-1.1-9.5 0.3-4.1 0.8-10.4 1.2-14 0.4-3.6 0.4-8.2 0-10.2-0.3-2.2-2-5.4-4-7.5-1.8-2.1-4.3-5.6-5.5-7.8-1.1-2.2-2.1-5.5-2.1-7.2 0-1.8 0.6-4.5 1.4-6 0.8-1.6 2.5-3.8 3.8-5 1.2-1.3 4.3-2.9 6.8-3.7zm-36 3.4c-2.1-0.7-1.9-0.8 1.5-0.8 2.2 0 4.9 0.3 6 0.8 1.6 0.7 1.3 0.9-1.5 0.8-1.9 0-4.6-0.4-6-0.8zm17.5 2.8c1.1-0.3 2.5-0.6 3-0.7 0.6-0.1 0.8 0.7 0.6 1.7-0.3 0.9-0.6 3.7-0.9 6.2-0.2 2.5 0.1 5.6 0.7 7 0.6 1.4 2.7 4.5 4.6 7 1.9 2.5 4.2 5.8 5.1 7.5 1.3 2.3 1.5 4.5 1 9.5-0.3 3.6-0.9 10.8-1.2 16-0.6 9.2-0.6 9.6 2 12.8 1.4 1.7 3.4 3.4 4.4 3.6 0.9 0.3 2.4 1.9 3.2 3.7 0.8 1.8 2.9 4.2 4.5 5.4 1.6 1.3 4.7 2.8 10.5 4.5l-2.6 3.3c-1.5 1.7-4.5 4.4-6.8 6-2.8 1.9-5.4 2.7-8.1 2.7-2.2 0-4.9-0.6-6-1.3-1.1-0.8-3-3.5-4.2-6-1.3-2.6-2.3-5.9-2.3-7.4 0-1.8 1.1-3.9 3-5.8 1.7-1.7 3.1-3.5 3.1-4 0-0.5-0.7-1.6-1.6-2.2-1.2-1.1-2-1-4 0.2-1.4 0.8-3.2 2.8-4 4.5-0.8 1.7-2.5 3.5-3.7 4.1-1.7 0.8-2.6 0.8-3.3 0-0.6-0.6-2.8-1.1-5-1.2-2.5 0-5 0.8-6.7 2.1-1.6 1.1-3.6 1.7-4.5 1.4-1.4-0.4-1.1-0.9 1.6-2.2 1.9-0.9 4.1-3.2 5-5 1.5-3.1 1.5-3.3-0.4-5.1-1.8-1.7-2.5-1.8-7.1-0.8-4.1 0.9-5.8 0.9-7.8 0-1.8-0.9-3.2-3-4.7-7-1.1-3.2-2.3-6.7-2.6-7.8-0.3-1.1-0.7-5.3-0.9-9.2-0.2-4-0.1-7.3 0.4-7.3 0.4 0 1-1.2 1.4-2.7 0.4-1.6 0.3-4.6-0.3-6.8-0.8-3.2-0.7-4.7 0.5-7.3 0.9-1.7 1.6-3.7 1.6-4.2 0-0.5 1.3-3 3-5.5 1.6-2.5 3-5.4 3-6.5 0-1.9 0.1-1.9 2.7-0.2 1.9 1.2 4.7 1.7 9.3 1.7 4.9 0 7.3-0.5 9.5-2 1.7-1.1 3.9-2.3 5-2.7zm64 6.2c-0.5-2-0.5-2 2.8-0.1 1.7 1.1 6.5 5 10.6 8.8 4.1 3.7 9.1 9.3 11.1 12.3 2.1 3 4.5 7.3 5.3 9.5 0.8 2.2 1.8 5.1 2.1 6.5 0.5 2.5 0.4 2.5-6.2 2.6-3.7 0-10.8 1.1-15.7 2.3-6.8 1.8-10.4 2.2-14.7 1.7-3.2-0.3-7.4-1.3-9.3-2.1-2.9-1.3-3.5-2-3.5-4.6 0-1.7 0.7-4.5 1.5-6.2 0.8-1.8 2.9-4.8 4.7-6.7 1.8-1.9 4.7-5.8 6.5-8.5 1.7-2.8 3.6-6.9 4.2-9.3 0.6-2.3 0.9-5.1 0.6-6.2zm-29.8 41.8c0.3-2.1 0.7-3.8 0.9-3.8 0.2 0 1.9 1 3.7 2.2 1.7 1.3 3.4 2.5 3.7 2.6 0.3 0.2 1 2.9 1.6 6.1 0.6 3.2 0.7 6.7 0.3 8.1-0.5 1.4-2 3.1-3.4 3.8-1.4 0.6-5.4 1.2-15.5 1.2v-5.5c0-4.8 0.2-5.5 2-5.5 1.1 0 2.9-1.2 4.1-2.7 1.1-1.6 2.3-4.5 2.6-6.5zm42.8 3.8c5.5-1.3 10.4-2.5 11-2.5 0.6 0 2.7 0.3 4.7 0.7 3.4 0.6 3.7 0.9 3.1 3.2-0.3 1.4-1.4 4.1-2.3 6-1 1.9-3.3 4.8-5.1 6.4-1.9 1.6-5.6 3.9-13.4 7.4l-2.7-3.4c-2.1-2.5-3.6-3.4-5.8-3.4-1.6 0-4.2 0.5-5.7 1.1-1.6 0.6-4.5 2.4-6.5 4-2.1 1.6-3.8 3.7-3.8 4.7-0.1 0.9 0.5 2.3 1.2 3 0.7 0.7 3.3 1.3 5.8 1.3 2.5 0 6.2-0.2 8.3-0.5 3.3-0.5 3.7-0.4 3.7 1.7 0 1.2-0.4 2.8-0.8 3.5-0.6 1.1-2.1 0.9-7.7-0.7-3.9-1.2-11.3-2.7-16.5-3.5-5.2-0.8-10.6-1.8-12-2.4-1.4-0.5-3.3-1.7-4.2-2.6-1-0.9-1.8-1.9-1.8-2.3 0-0.5 3-0.9 6.8-1.1 4.9-0.1 7.8-0.8 10.7-2.6 2.9-1.7 4.2-3.2 4.8-5.7 0.4-1.9 0.4-5.4 0-7.9-0.7-4.4-0.6-4.5 1.8-3.7 1.3 0.5 5.5 1.1 9.4 1.3 5.3 0.4 9.5-0.1 17-2zm23.7 0.6l3 2.1c1.6 1.2 3.8 3.5 4.7 5.2 1 1.7 2.2 4.3 2.5 6 0.4 1.7 0.9 8.4 1.2 15 0.3 8.2 0.8 12.2 1.6 12.7 0.7 0.4 1 0.8 0.6 0.8-0.5 0 0.4 1.6 2 3.5 1.5 2 4.4 4.2 6.5 5 2 0.8 6.3 1.5 9.5 1.5 3.1 0 8-0.7 10.7-1.6 2.8-0.9 7-3.3 13.9-8.9l-0.8 4c-0.4 2.2-1.9 6.7-3.2 10-1.3 3.3-3.9 7.8-5.6 9.9-1.8 2.2-5.1 5.2-7.3 6.7-2.2 1.5-6.7 3.7-10 5-4.6 1.8-8.1 2.3-24 2.4l-0.7-6.5c-0.4-3.6-1.3-8.1-1.9-10-0.6-1.9-2.3-5.7-3.7-8.5-1.4-2.7-4.6-6.9-7.1-9.3-2.5-2.3-5.7-4.6-7.1-5.1-1.4-0.5-4.7-1.8-12.1-4.6l0.1-5.2q0-5.3 1.3-5.3c0.6 0 3.9-1.4 7.2-3.1 3.3-1.7 7.9-4.9 10.3-7.2 2.4-2.4 5.2-6.5 6.3-9.4zm-39.7 19.3c1.7-0.7 4-1.4 5.3-1.4 1.3 0 2.7 0.8 3.2 2 0.9 1.8 0.6 2.1-3.5 3-2.4 0.5-6.2 1-8.2 0.9-3.6 0-3.7-0.1-1.8-1.6 1.1-0.8 3.4-2.2 5-2.9zm-95.2 0.8c0.5-0.7 1.4-1.2 1.8-1.2 0.5 0 1.2 0.6 1.4 1.5 0.3 0.8-0.2 2-1 2.7-0.9 0.7-1.5 2.2-1.5 3.3 0.1 1.2-1 2.5-2.7 3.3-2.6 1.3-2.7 1.3-1.9-0.5 0.5-1 1.3-3.2 1.9-4.8 0.6-1.7 1.5-3.6 2-4.3zm12-0.6c2.3-0.1 4.5-0.4 4.8-0.5 0.2-0.1 0.4 0.5 0.2 1.4-0.1 0.8-1.3 1.7-2.5 2.1-1.3 0.3-3.1 0.4-4.2 0.2-1-0.2-2-0.9-2.2-1.6-0.3-0.8 1.1-1.3 3.9-1.6zm-114.5 2c3.1-0.8 8.1-1.5 11-1.5 2.9-0.1 7.6 0.4 10.5 1 2.9 0.6 7.5 2.2 10.2 3.5 2.8 1.3 7.5 4.8 10.4 7.6 3 2.9 6.4 7.4 7.8 10 1.3 2.6 3 7.4 3.8 10.5 0.9 3.2 1.5 8.5 1.5 11.8 0 3.3-0.7 8.4-1.5 11.5-0.8 3-2.2 7-3.1 9-0.9 1.9-3.5 5.4-9.9 12h-20.2c-12.8 0-20.3-0.4-20.3-1 0-0.6 2.4-2.8 5.3-5.1 2.9-2.2 7.6-5.8 10.5-8 2.9-2.1 6-5.4 6.8-7.2 1-1.9 1.6-5.5 1.6-8.7-0.1-3.1-0.6-7-1.1-8.8-0.7-2-2.7-4.4-5.3-6.3-3.2-2.3-5.3-3-8.8-3-2.7 0-6.4 1-9.5 2.5-2.7 1.4-6.1 4-7.4 5.8-1.3 1.8-3.6 6.2-5.1 9.8-1.7 4.2-3.5 6.9-5 7.7-1.4 0.7-4 1.3-6 1.3-1.9 0-5-0.6-7-1.4-1.9-0.8-4.2-2.3-5.2-3.3-1-1-2-4.1-2.3-6.8-0.4-3.1-0.1-6.8 0.8-9.5 0.7-2.5 3.5-7.8 6.1-11.8 2.9-4.5 6.6-8.7 9.9-11.1 2.9-2.2 7.6-5.1 10.5-6.5 2.9-1.5 7.8-3.3 11-4zm139.4 7.7l0.7 2.6c0.5 1.4 1.8 4.5 3 6.8 1.2 2.4 3.6 5.3 5.4 6.7 1.8 1.3 4.7 2.6 6.5 3 2.2 0.4 4.7-0.1 8-1.5 2.6-1.2 5.4-2.8 6.2-3.7 1-1 1.6-1.1 1.8-0.4 0.1 0.7-0.8 3.5-2 6.4-1.2 2.9-3.5 7.4-5.2 9.9-1.7 2.6-5.4 6.8-8.3 9.3-2.9 2.5-5.7 4.6-6.3 4.6-0.5 0-0.7 0.4-0.5 1 0.3 0.5-0.3 0.8-1.5 0.5-1.1-0.3-2-0.1-2 0.5 0 0.5-1 1.2-2.2 1.6-1.3 0.3-2.9 0.7-3.8 0.9-0.8 0.2-3.7 0.5-6.5 0.6-2.7 0.1-6.7-0.1-8.7-0.5-2.1-0.3-5.3-0.9-10.8-1.6l3.7-4.3c2-2.3 4.4-5.8 5.2-7.7 0.8-2 2-5.8 2.8-8.5 0.7-2.8 1.3-6.8 1.4-9 0-2.2 0.6-5 1.2-6.1 0.7-1.2 2.1-3.2 3.2-4.5 1.1-1.4 3.5-3.4 5.4-4.5zm-35.4 5.2c1.5-1.4 3.2-2.5 3.7-2.6 0.6 0 2 1.3 3.3 3 1.2 1.7 2.2 3.2 2.2 3.5 0 0.3-1.7 0.5-3.7 0.5-2.4-0.1-4.4 0.6-5.3 1.6-0.9 1-1.4 3.4-1.4 5.8 0.1 2.3 0.8 5.5 1.7 7.1 0.8 1.7 3.1 4 5.1 5.3 2 1.2 4.7 2.2 6.1 2.2 1.6 0 2.5 0.6 2.5 1.5 0 0.8-2.2 3.9-9.9 12l-5.6-3c-4.8-2.6-5.8-3.6-7.5-8-1-2.7-2.8-6.8-3.9-9-1.2-2.2-2.1-4.9-2.2-6.1 0-1.2 0.7-2.7 1.5-3.4 0.8-0.7 1.5-2.2 1.5-3.4 0.1-1.1 0.6-2.6 1.3-3.3 0.7-0.7 2.7-1.3 4.5-1.3 2.1 0 4.3-0.9 6.1-2.4zm74.5-1.8l6.1 0.7c3.4 0.4 9.6 1.8 21.6 5.5l0.6 5.8c0.5 3.7 2 8.4 4.5 13.2 2.1 4.1 6.2 10 9.1 13.1 3.3 3.5 7.7 6.7 18.3 11.9l2.5 15c1.4 8.3 2.8 15 3.3 15 0.4 0 1 2.6 1.3 5.8 0.3 3.1 0.7 6.8 0.9 8.2 0.2 1.4 0.4 2.5 0.5 2.5 0.1 0 0.4 2 0.6 4.5 0.3 2.5 1.8 9.7 3.4 16 1.8 6.8 3 14.1 3 17.8 0 3.4-0.4 7.3-1 8.7-0.5 1.4-2.5 4.2-4.2 6.2-1.8 1.9-5.5 4.7-8.3 6.1-2.7 1.4-7.5 3.3-10.5 4.4-3 1-5.5 1.8-5.5 1.8 0 0 0.8-2.5 1.8-5.5 0.9-3 2-8.7 2.3-12.7 0.5-5.9 0.1-10-2.4-21.8-1.7-8-3.8-17.6-4.6-21.5-0.8-3.8-2-11-2.6-16-0.9-7.4-0.8-10.6 0.4-18 0.9-4.9 1.6-11.7 1.6-15 0.1-4.8-0.3-6.4-2-8-1.7-1.6-2.5-1.7-3.8-0.9-0.9 0.7-3.2 3.4-5 6-1.8 2.7-3.8 6.7-4.4 8.9-0.6 2.3-0.8 8.1-0.5 13.5 0.4 6.7 1.6 12.9 4 21 1.9 6.3 4.8 16 6.6 21.5 1.7 5.5 3.1 11.7 3.1 13.8 0 3-0.5 4-2.5 5-1.3 0.7-2.1 1.7-1.7 2.2 0.4 0.7 0.1 0.7-0.8 0.2-0.9-0.6-2.7-0.4-4.5 0.4-1.6 0.7-4.2 2.1-5.7 3.1-1.6 1-3.9 1.8-5.2 1.8-1.4 0-3.1 0.7-3.9 1.5-0.9 0.8-2.4 1.5-3.5 1.5-1 0-2.2 0.4-2.6 0.8-0.4 0.4-1.3 0.8-1.9 0.9-0.7 0.1-3.2 0.6-5.7 1.1-2.5 0.6-5.2 0.8-6 0.4q-1.5-0.7-0.7 0.6c0.5 0.8-0.2 0.7-2-0.2-1.6-0.9-3.1-1.3-3.5-1-0.5 0.2-3.2-1.3-6-3.5-2.9-2.1-6.3-4.3-7.5-5-1.3-0.6-2.9-0.7-3.5-0.3q-1.3 0.7-0.5-0.5c0.5-0.9-0.1-1.3-1.8-1.3-1.4 0-3.3 0.5-4.2 1-1 0.5-4.5 1.7-7.8 2.6-4.5 1.3-6.7 2.6-9 5.3-1.6 1.9-4.8 5.2-7 7.3-2.2 2.1-4.1 3.7-4.1 3.6-0.1-0.2-0.7-8.8-1.4-19.3-0.6-10.4-1.3-20.6-1.6-22.5-0.2-1.9-0.8-11.4-1.2-21.1-0.6-15.8-0.9-18-2.8-20.5-2-2.8-2-3.2-0.8-12.9 0.7-5.5 1.4-10.3 1.4-10.7 0-0.4 1.7-0.5 3.8-0.2 2 0.3 4.8 0.8 6.2 1.2 1.5 0.4 2.2 0.2 1.9-0.3-0.4-0.6 2.3-1 7-1.1 4.2 0 9-0.3 10.6-0.7 1.7-0.4 3.9-0.8 5-1 1.1-0.2 4.3-1.5 7-3 3.8-2 6.6-4.7 11.6-11.4 3.6-4.8 7.5-11 8.7-13.8 1.1-2.7 2.5-6.6 3.1-8.5 0.5-1.9 1.3-4.8 1.7-6.4zm-58.7 3.5c0.4-1.6 1.3-2.2 3.5-2.2 1.6 0 2.9 0.2 2.9 0.5 0 0.3-0.9 2-2 3.7-1.1 1.8-2 4.4-2.1 5.8 0 2-0.3 1.7-1.4-1.5-0.8-2.2-1.2-5-0.9-6.3zm90.3 4.3c0-0.2 1.3 0.1 2.9 0.6 2.3 0.8 3 1.7 3.1 3.7 0 1.5 1 4.2 2.1 5.9 1.1 1.8 2.8 3.6 3.7 3.9 1 0.4 2.4 0.2 3.3-0.3 0.8-0.6 1.7-2.1 2-3.4 0.6-2.2 0.8-2 3.8 2.6 1.8 2.7 3.9 7.2 4.7 10 0.8 2.7 1.8 7.2 3 14.7l-3-1.2c-1.7-0.6-4.4-2-6-3-1.7-1-5.1-4.2-7.6-7.2-2.6-2.9-5.8-7.6-7.2-10.3-1.4-2.8-3-7.4-3.6-10.3-0.6-2.8-1.2-5.4-1.2-5.7zm-103.5 4c0.3-0.8 1.7-1.5 3-1.5 1.4 0 2.9 0.4 3.3 1 0.4 0.6-0.2 1-1.5 1-1.2 0-2.6 0.8-3.1 1.7-0.6 1.3-1 1.5-1.5 0.5-0.3-0.6-0.4-1.9-0.2-2.7zm-31.4 12.2c2.5-2.6 5.2-4.7 5.9-4.7 0.8 0 1.7 1.5 2.1 3.2 0.5 1.8 2.7 5.8 5 8.8 3.7 4.9 4.1 5.9 3.5 9-0.4 1.9-1.6 6.6-2.7 10.5-1.2 3.8-3.7 11.3-9.2 26l-3.1-3.6c-1.7-2-4.8-4.6-7-5.8-2.2-1.2-4.8-2.1-5.8-2.1-0.9 0-1.7-0.1-1.7-0.3 0-0.1 0.9-5.4 2-11.7 1.1-6.3 3-14.4 4.2-18 1.6-4.7 3.4-7.8 6.8-11.3zm19.9 20.5c0.6-2.3 1.2-4.2 1.3-4.2 0.2-0.1 2.5 1.1 5.3 2.6 2.7 1.5 5.1 2.8 5.3 2.8 0.1 0.1-0.2 3.5-0.8 7.6-0.6 4.1-1.3 9-1.6 10.7-0.4 2.8-0.8 3.3-3.2 3.3-1.5 0-3.6 0.6-4.7 1.3-1.1 0.8-2.9 3.1-3.9 5.3-1.7 3.4-1.8 5.3-1.3 16.4 0.4 6.9 0.8 24.9 1.1 67.5l-2.5 1.2c-1.3 0.7-4 1.3-5.9 1.3-2 0-5.2-0.6-7.3-1.5-2-0.8-3.7-1.8-3.7-2.3 0-0.4-1.1-1.3-2.5-2-1.6-0.7-3.7-3.6-5.5-7.5-1.7-3.4-3.6-10.2-4.5-15.2-1-5.5-1.6-15-1.5-24.5 0-8.5 0.5-20.5 1.1-26.5 0.6-6.1 1.1-11.2 1.2-11.3 0.1-0.2 1.3-0.1 2.7 0.2 1.3 0.2 4 1.5 6 2.8 1.9 1.3 4.3 4 5.2 6.1 1.8 3.7 1.8 3.7-2.1 15.9-2.2 6.8-4.5 15.6-5.3 19.5-1.2 6.6-1.2 7.4 0.4 9 1 1.1 2.3 1.5 3.2 1 0.9-0.4 3-3.7 4.8-7.5 1.7-3.7 3.7-9.4 4.4-12.7 0.7-3.3 1.3-9.7 1.3-14.3 0.1-7.3 0.6-9.5 4.4-19.5 2.4-6.1 5.1-13.5 6-16.2 0.8-2.8 2-6.9 2.6-9.3zm120.4 3.5q1.1-0.8 1.4 3c0.2 2.1-0.1 6.7-0.8 10.3-0.6 3.6-1.4 9.4-1.6 13-0.3 3.7 0.1 10.3 1 15.5 0.9 4.9 1.9 10.6 2.2 12.5 0.3 1.9-0.8-0.3-2.4-5-1.6-4.7-3.7-12.6-4.7-17.5-1.1-6.1-1.5-11.2-1.1-16 0.4-4.2 1.5-8.6 2.8-11 1.1-2.2 2.6-4.4 3.2-4.8zm-265.8 21.8c2.2-1.1 7.1-1.5 37.5-1.5l-2.7 5.7c-1.8 4-2.8 8-3.1 12.8-0.3 4.6 0.1 9.2 1.2 13.5 0.9 3.6 2.5 8 3.6 9.7 1.5 2.5 1.7 3.9 1 5.5-0.6 1.5-0.5 3.7 0.1 6.3 0.6 2.2 2.6 5.4 4.5 7.2 1.8 1.8 5.3 3.8 7.6 4.4 2.4 0.6 6.1 0.7 8.3 0.3 2.2-0.4 5.3-1.3 7-2 1.6-0.8 3.9-2.2 5.1-3.1 1.2-1 2.6-2.8 3.2-4.1 0.7-1.2 1.2-3.7 1.1-5.5 0-1.7-0.9-4.8-1.9-6.7-1.1-1.9-2.6-6.7-3.4-10.5-1.1-5-1.3-8-0.6-10.5 0.5-1.9 2.3-5.4 3.9-7.8 1.7-2.3 6.6-6.7 18.6-15.1l17-0.1-0.8 4.7c-0.4 2.6-1 15.1-1.4 27.8-0.5 19.2-0.3 24.5 1.1 32 0.9 4.9 2.8 11.5 4.2 14.5 1.4 3 3.9 7 5.7 8.8 1.7 1.9 4.4 4 5.9 4.8 1.5 0.8 3.3 1.1 4 0.6q1.2-0.7 0.5 0.5c-0.5 0.9 0.3 1.5 2.5 1.9 1.8 0.3 4.8 0.4 6.8 0.1 1.9-0.2 4.3-0.8 5.4-1.3 1.8-0.9 1.9-0.6 1.3 5.6-0.3 3.6-1.1 6.6-1.7 6.7-0.6 0.2-0.9 0.6-0.7 1 0.2 0.5-0.7 1.9-2.1 3.3-1.4 1.4-2.3 2-2 1.5 0.4-0.6-5-1.2-14.6-1.5-8.3-0.3-27.5-0.5-42.6-0.4-20.4 0.1-30.5 0.5-39 1.8-6.4 0.9-13.6 2.3-16 3-2.5 0.7-6 2.1-7.8 3-2.8 1.4-3.7 1.4-6.5 0.3-1.8-0.8-4.5-2.8-6-4.5-1.7-2-2.9-4.8-3.2-7.5-0.3-2.3-1.7-15.9-3-30.2-1.4-14.3-3.3-34.7-6-64.5l2.5-4.5c1.4-2.5 3.8-5.2 5.5-6zm148.2 3.8c1-1.3 2.7-2.3 3.8-2.3 1.9 0 2 0.6 1.7 30-0.2 21.1-0.7 32-1.6 36.7-0.8 3.8-2 8.1-2.7 9.8-1.2 2.8-1.4 2.1-2.1-8.5-0.4-6.3-0.8-15.6-0.9-20.5-0.2-5-0.2-16.7-0.1-26 0.1-14.6 0.4-17.3 1.9-19.2zm10 5.7c0.4-1.7 1 1 1.5 8 0.5 5.8 1 13 1.1 16.1 0.1 3.2 0.4 5.6 0.7 5.4 0.2-0.2 0.5 6.3 0.6 14.3 0 8.1 0.7 23.9 1.4 35.2 0.7 11.3 1.3 22.3 1.3 24.5 0 2.2-0.3 5.2-0.7 6.7-0.5 2.2-0.3 2.7 0.9 2.3 0.8-0.3 1.5-0.1 1.5 0.5 0 0.5-0.8 0.8-1.8 0.6-1-0.3-3.6 1.1-6.2 3.3-3.1 2.6-5 3.6-6 3-0.9-0.4-30.3-2.9-65.5-5.4-35.2-2.6-64.3-4.8-64.5-5-0.3-0.2 2.6-1.1 6.5-1.9 3.8-0.8 11.5-2 17-2.6 5.5-0.7 19.4-1.2 31-1.3 11.5-0.1 29.9 0.2 60.6 1.5l4.3-4.4c2.6-2.6 4.2-5 3.9-6.1-0.2-0.9 0.1-1.5 0.7-1.2 0.6 0.3 1-2.3 1-7 0-6.3 0.3-8 2.3-10.8 1.3-1.7 3.5-5.9 4.7-9.2 2.2-5.7 2.4-7.5 2.7-35 0.1-16 0.6-30.1 1-31.5zm-33.4 25c1.6-5.5 3-10 3.2-10 0.2 0 0.2 1.7-0.1 3.7-0.3 2.1-1.5 6.9-2.5 10.8-1.1 3.8-2.3 6.6-2.7 6.2-0.4-0.4 0.5-5.2 2.1-10.7zm-68.8 9.7c1.6-0.9 5.1-1.6 7.7-1.7 4.7 0 4.8 0 6 4.1 1.1 3.4 1 4.5-0.3 6.7-0.8 1.5-3.1 3.5-5 4.4-2 1-5.9 1.7-9.2 1.7-3.1 0.1-6.9-0.5-8.4-1.2-1.4-0.6-3.2-2.4-4-4-0.7-1.5-1.3-4.2-1.3-9.2l5.7 0.4c4 0.2 6.7-0.1 8.8-1.2zm217.5 16.3l1 4.7c0.8 3.4 0.8 6.9 0 12-0.5 4-1.9 9.4-5 16.8l-10.3 1.4c-5.7 0.7-12.7 1.1-15.7 0.7-3.1-0.3-8-1.1-11-1.8-4.4-0.9-5.9-0.9-7.5 0.2-1.1 0.7-3.6 1.7-5.5 2.1-2.7 0.6-4.6 0.2-8-1.3-4.4-2-4.8-2-12.8-0.4-4.5 0.9-8.9 1.6-9.7 1.6-0.9 0-1.5-0.5-1.5-1 0-0.6 0.9-1 2-1 1.1 0 2.9-0.5 4-1 1.1-0.6 2-1.6 2-2.3 0-0.6-0.6-1.8-1.5-2.5-0.8-0.6-1.3-1.9-1-2.7 0.2-0.8 0-2.2-0.5-3-0.8-1.1-0.6-1.6 0.5-2 0.8-0.3 1.4-1.5 1.2-2.8-0.2-2-0.8-2.2-5.9-2.2-4 0-5.2-0.3-4-0.9 0.9-0.5 4.1-1.8 7.2-2.9 3-1.1 6.7-1.9 8.2-1.8 1.5 0 3.6 0.2 4.7 0.3 1 0.2 1.7 0.5 1.5 0.8-0.2 0.3 2.2 1.9 5.3 3.7 3.2 1.8 6.7 3.3 7.9 3.5 1.2 0.2 2.6 0.6 3 1.1 0.5 0.4 2.1 0.7 3.6 0.7 1.5 0 3-0.5 3.3-1 0.2-0.6 0.9-0.8 1.5-0.5 0.5 0.3 3.4-0.4 6.5-1.5 3-1.1 5.9-1.8 6.5-1.5 0.5 0.3 1 0 1-0.5 0-0.6 1.4-1.3 3.2-1.7 1.8-0.4 3.6-0.6 4-0.5 0.4 0.1 0.8-0.3 0.8-0.8 0-0.6 0.9-1 2-1 1.1 0 5.2-1.2 9.1-2.8 5.4-2 7.5-3.4 8.5-5.5zm-98 23.5c2.4-2.5 4.6-4.1 4.7-3.5 0.2 0.6-0.8 2.6-2.2 4.5-1.5 2.3-3.3 3.5-4.7 3.6-2 0-1.8-0.5 2.2-4.6zm7.2 24.4c0-0.8 6.6-1 22.9-0.7 12.5 0.2 23.1 0.7 23.6 1.1 0.5 0.4 0.5 1.1 0 1.5-0.5 0.4-9 0.7-19 0.7-10 0-20.3-0.3-22.9-0.7-2.6-0.4-4.7-1.3-4.6-1.9zm113 12.4c-0.2-0.7 0.2-1.3 1-1.3 0.7 0 2.5 0.8 3.8 1.9 1.4 1.1 2.2 2.2 1.8 2.6-0.4 0.3-2 0-3.4-0.7-1.5-0.7-2.9-1.8-3.2-2.5z"/>
</svg>