<svg version="1.2" xmlns="http://www.w3.org/2000/svg" viewBox="0 0 3300 3300" width="3300" height="3300">
	<title>check_mark_hand_drawn_scribble_line</title>
	<style>
		.s0 { fill: #000000 } 
	</style>
	<g id="background">
	</g>
	<g id="objects">
		<g id="&lt;Group&gt;">
			<path id="&lt;Compound Path&gt;" fill-rule="evenodd" class="s0" d="m3013.2 590.2q-25 27.7-49.8 55.6c-131.5 147.7-258.8 299.1-381.9 453.7-124.7 156.6-245.1 316.5-361.2 479.4-70.5 98.9-139.4 199-206.7 300.1-41.3 72.7-81.8 145.7-121.9 219.1-95.7 174.9-188.4 351.4-281.8 527.5-83.5 157.3-167.3 314.6-256.6 468.7-5.8 10.1-29.3 29.1-40.5 16.3q-3.9-4.4-7.8-8.9-4 8.2-8.1 16.4c-5.7 11.5-35.5-12.4-39.6-17.1-60.9-70-122.9-138.9-186.7-206.3-102.8-108.6-210-213.7-323-311.9q-37.7-28.6-76.2-56.3c-140.1-100.8-287-191.8-439.5-272.6-4.8 0.3-9.1-1-10.6-5.6q-11.5-6-23.1-12c-17-8.8 20.5-40.9 36-32.8q10.8 5.6 21.6 11.2 159.9-79.7 319.7-159.5 116.6-77.7 233.2-155.3 1.3-0.9 3.1-1.1c1.7-1.1 4.5-1.5 8-0.9 11.2 1.8 22.9 10 30.1 18.6q0.5 0.6 1 1.2 12.3-6.1 24.6-12.3c6.2-3.1 17.1-6.3 22.3 0.2 10.2 12.4 20 25.2 29.7 38 107.9 141.6 205.9 292.4 288.6 450.6 65-145.3 132.5-289.5 202.4-432.5 84.3-172.2 172.1-342.7 263.3-511.3 33-70.8 66.5-141.4 100.9-211.6 97.8-199.8 201.3-397.1 317.1-587.1 97.4-159.8 203.1-317.8 333.2-453.1 5.9-6.1 21.7-15 30.6-9.7q33.9 20.3 67.8 40.6 148.4 88.6 296.7 177.3 93.2 55.7 186.3 111.4c9.5 5.6 0 18.4-5.4 23.1q-11.7 10.4-23.3 21 5.5 3.6 11 7.2c2.4 1.6 22 14.7 16.5 20.7zm-437.2 375.2c114.2-144 237.4-281.6 372.9-406q-13.7-9-27.3-17.9-143.7-94.6-287.4-189.1-59.1-38.9-118.2-77.8-21.5-12.8-43-25.7c-104.2 152.8-205.5 307.5-303.6 464.3-178.7 285.4-347 577.2-504.6 874.8q-27.7 52.2-54.9 104.6-44.7 101.5-88 203.6c-62.3 147.1-122.8 295.5-180.6 443.5-22.9 58.9-45.7 117.8-67.5 177.1-3.5 9.4-11 16.6-20 20.9-4.6 2.2-18.9 7.1-22.3-0.2q-7.5-16.3-15.3-32.5c-11.5-0.8-33.2-19-35.7-23.9-8.2-15.6-16.6-31.1-25.1-46.5-44.1-80.5-90.4-159.8-138.9-237.7-52.8-84.7-108.3-168.3-170-247q-60.4 30.2-120.9 60.4-189.5 126.2-379 252.4 11.1 6.8 22.1 13.7 70.4 40 139 83c157.7 98.9 308 209.3 449.4 330.2 118.5 101.2 230.8 209.7 336.1 324.7 87.4-172.9 179.4-343.5 275.7-511.5 99.5-173.7 203.7-344.7 312.2-512.8 76.2-118.1 154.6-234.8 235.1-350 31.9-53.1 64.4-105.9 97.5-158.3 112.4-177.7 231.6-351.4 362.3-516.3zm334.6-454.9q-19.9-11.9-39.9-23.9 45.9 30.2 91.8 60.4 1.8-1.7 3.6-3.3-27.7-16.6-55.5-33.2zm-816.2 212.1c-40.3 68.8-79.3 138.4-117.1 208.7 124.5-208.2 254.4-413.1 389.5-614.5-102.5 126.6-190.2 265.7-272.4 405.8zm-849.5 1728.4q4.4 8.9 8.7 17.7 2.2-5.8 4.4-11.5c18.9-49.7 38.2-99.3 57.7-148.8q18.9-48.2 38.2-96.3-55.6 119-109 238.9zm-959.9-220.8q7.7 4.1 15.3 8.2 47.5-31.6 95.1-63.3-55.2 27.6-110.4 55.1zm984.4 831.5c-55.2-61.2-112.3-120.5-171.4-178q-47.7-46.4-97.1-91c90.6 90.7 177.7 184.9 262.4 281.1q3-6.1 6.1-12.1zm468.7-748.1q-83.3 138.2-162.7 278.8c-85.7 151.9-167.9 305.8-246.4 461.5q3.2 3.6 6.3 7.2 4.4-7.6 8.7-15.1c90.1-158.5 175.3-319.7 260.6-480.8 44.4-83.9 88.8-167.8 133.5-251.6zm846.4-1297.2c101.6-125.9 205.9-249.4 313-370.6-121.8 120.5-233.2 251.5-337.3 387.6-47.2 61.7-93 124.6-137.5 188.4q79.7-103.7 161.8-205.4z"/>
			<path id="&lt;Path&gt;" class="s0" d="m832.3 2067.4q-1.2-1.9-3.6-2c-4.9-1.1-10.5-0.5-15.3 0.5-6.3 1.1-12.8 2.7-18.5 5.6q-32.5 16.2-64.2 33.8-29.7 16.5-58.6 34.3-28.9 17.7-56.9 36.8c-19.6 13.3-39 27.2-58 41.4q-27.2 20.3-53.5 41.9-3.3 2.6-6.5 5.3-2.1 1.3-2.2 3.5-0.7 1.7 1.2 2.8 2.4 1.3 5 1.4 3.6 0.5 7.3 0.1c6.4-0.6 12.8-1.9 18.8-4.2 4.8-1.8 9.6-3.8 13.6-7.1q28.3-23.5 57.7-45.5 7.4-5.6 15-11.1 33.5-24.3 68.2-46.8 35.5-22.9 72.3-43.8 19.3-11 38.9-21.4 14.8-7.7 29.6-15.2 3.5-1.3 6.3-3.6 2.3-1.4 3.7-3.6 1.1-1.9-0.3-3.1z"/>
			<path id="&lt;Compound Path&gt;" fill-rule="evenodd" class="s0" d="m2618.8 787.9q-43.4 50.9-86.9 101.8-43.6 51.2-87.2 102.3c-1.8 2-6.5-0.8-8.2-1.6-5.3-2.5-10.1-6.3-14.7-10-4.4-3.6-9.1-7.9-12.6-12.5-0.6-0.8-4.7-5.8-3.2-7.7q39.1-45.8 78.2-91.6 69.4-81.4 138.9-162.8c20.2-23.6 41.1-46.8 60.2-71.4 8.4-10.9 16.4-22.2 23.1-34.2 6-10.7 11.3-22.1 13.3-34.3 0.2-1.7 0.3-3.4 0.2-5.1-0.2-2.7-1-5.3-1.9-7.9q-0.1-0.3-0.2-0.5-0.6-1.1-1.2-2.2-1.3-2.6-2.9-5-0.1 0-0.1-0.1-0.7-1-1.4-2-2-2.5-4.1-5-0.9-1.1-1.8-2.1-2.6-2.8-5.3-5.5-1-1-2.1-2-3-2.9-6.1-5.8-1.6-1.4-3.1-2.7-3.1-2.7-6.2-5.3-7.4-6.2-15-12.1-0.5-0.4-1.1-0.9-1-0.8-2-1.6-4.1-3.1-8.2-6.1c-11-8.2-22.2-16.2-33.5-24q-4.2-2.9-8.3-5.7 0 0 0 0-2-1.3-4-2.7-8.1-5.4-16.3-10.8-27.5-17.9-55.5-34.9c-7.7-4.7-15.4-9.3-23.2-13.8-5.5-3.2-10.5-7.5-15.2-11.8-3.6-3.3-7.4-7.1-9.9-11.5-1-1.8-2.1-4.5 0.8-4.9 3.1-0.4 8.7 3.5 10.9 4.8q0.6 0.3 1.2 0.6c8.2 4.8 16.4 9.8 24.6 14.8q23.7 14.4 46.9 29.4c20.6 13.4 41 27.1 61 41.4 20 14.3 39.8 29.2 58.5 45.2 17.7 15.1 35.6 31.1 49.6 49.9 5.1 6.8 9.6 13.9 12.6 21.9 2.7 7.5 1.5 15-0.6 22.6-4.2 15.8-12.9 30.4-22 43.9-9.1 13.4-19.2 26-29.7 38.3-28.7 33.8-57.5 67.5-86.3 101.2zm93.9-244.2q0.1 0.2 0.2 0.3-0.2-0.2-0.2-0.3zm0.2 0.3q0 0.1 0.1 0.2-0.1-0.1-0.1-0.2z"/>
		</g>
	</g>
</svg>