<svg version="1.2" xmlns="http://www.w3.org/2000/svg" viewBox="0 0 4806 1106" width="4806" height="1106">
	<title>final logo black-01</title>
	<style>
		.s0 { fill: #030304 } 
	</style>
	<path id="Path 0" fill-rule="evenodd" class="s0" d="m82 38.2c4.7-0.1 12.3 0.3 17 0.8 4.7 0.6 12.3 2 17 3.1 4.7 1.2 13 3.8 18.5 6 5.5 2.1 14 6.2 19 9 5 2.8 12.4 7.6 16.5 10.7 4.1 3 10.6 8.3 14.4 11.6 3.8 3.4 10.8 10.4 15.4 15.6 4.7 5.2 11.7 13.8 15.6 19 3.9 5.2 9.9 14 13.4 19.5 3.4 5.5 10.4 18.3 15.6 28.5 5.1 10.2 10.6 22.3 12.3 27 1.7 4.7 3.9 11.9 4.9 16 1.6 6.8 1.8 15.1 2.5 163.5l15.7-7.7c8.6-4.3 21.6-10.1 28.7-12.9 7.1-2.8 17.7-6.7 23.5-8.6 5.8-1.9 16.4-5 23.5-6.8 7.1-1.9 17.5-4.3 23-5.4 5.5-1.1 15.2-2.7 21.5-3.5 6.3-0.9 19.4-2 29-2.5 11.5-0.7 23.6-0.7 35.3-0.1 9.7 0.6 22.8 1.7 29 2.5 6.1 0.9 15.9 2.5 21.7 3.6 5.8 1.1 16.8 3.6 24.5 5.6 7.7 1.9 20.5 5.8 28.5 8.5 8 2.8 20.8 7.7 28.5 11 7.7 3.3 19.6 8.9 26.5 12.5 6.9 3.5 17.7 9.6 24 13.4 6.3 3.9 15.5 9.9 20.5 13.4 5 3.6 14.4 11.2 21 16.9 6.6 5.7 19.4 18 28.6 27.3 9.1 9.2 21 22.2 26.5 28.8 5.4 6.6 13.4 16.7 17.5 22.5 4.2 5.8 10.4 14.8 13.7 20 3.2 5.2 8.3 13.8 11.2 19 2.9 5.2 7.7 14.9 10.7 21.5 3 6.6 7.4 17.5 9.9 24.3 2.4 6.7 6 18.2 7.9 25.4 1.9 7.3 4.3 18.5 5.4 24.8 1.6 9 2.2 20.1 3.1 50.5 0.5 21.4 1.5 49.1 2 61.5 0.6 12.4 1.5 28.3 2.1 35.5 0.6 7.2 1.7 17.7 2.5 23.5 0.8 5.8 2.2 13.2 3 16.5 0.9 3.3 2.3 7.2 3.2 8.7 1 1.5 1.3 3.1 0.9 3.5-0.5 0.4-6.8 0.2-14-0.5-7.3-0.6-17.9-2.3-23.7-3.6-5.8-1.4-15.2-4.1-21-6.1-5.8-2-15.5-6.1-21.5-9-6-2.9-16-8.7-22-12.7-6.1-4-14.6-10.2-19-13.8-4.4-3.6-12.3-10.8-17.5-16-5.3-5.2-12.8-13.3-16.7-18-3.9-4.7-10.8-13.7-15.3-20-4.5-6.3-10.4-16-13.1-21.5-2.6-5.5-6-14.1-7.3-19-1.4-4.9-4.2-17.8-6.1-28.5-2-10.7-4.7-23.8-6-29-1.3-5.2-4.3-14.9-6.5-21.5-2.3-6.6-7-17.8-10.5-25-3.5-7.2-9.4-17.7-13.2-23.5-3.8-5.8-9.5-13.7-12.7-17.5-3.3-3.8-8.2-9.4-11-12.4-2.8-2.9-9.1-8.7-14.1-12.9-5-4.2-13-10.2-18-13.5-5-3.3-15.1-9-22.5-12.6-7.4-3.7-19.3-8.6-26.5-11-7.2-2.4-18.1-5.4-24.3-6.7-6.1-1.3-16.9-3.1-23.9-3.9-7.1-0.8-20.3-1.5-29.6-1.5-9.4 0-21.8 0.7-28.4 1.6-6.5 0.8-14.8 2.6-18.6 4-3.7 1.3-9.7 3.5-13.4 4.8-3.8 1.4-11.5 3.2-17.3 4-5.8 0.9-18.1 2.3-27.5 3.1-9.4 0.8-28.9 2-70 3.7l-59.3-6.1c-32.5-3.4-60.3-6.1-61.7-6.1-2.2 0-1.7 0.7 3.8 5.2 3.4 2.9 16.6 12.7 29.2 21.9 12.6 9.1 32 22.5 43 29.9 11 7.3 25.9 17.7 33 23 7.1 5.3 16.6 13.3 21.1 17.6 4.4 4.3 10.4 11.5 13.4 15.9 3 4.4 6.6 10.7 8.1 14 1.5 3.3 3.8 9.6 5.2 14 1.4 4.4 3.3 12.5 4.3 18 1.2 7.2 1.7 15.2 1.7 28.5 0 11.7-0.7 23.3-1.7 31.5-1 7.2-2.9 19.1-4.2 26.5-1.4 7.4-5.4 26.8-8.9 43-3.5 16.2-7.4 36-8.6 44-2 12.4-2.3 18.6-2.3 42.5-0.1 18.2 0.4 31.3 1.2 37.5 0.8 5.2 2.5 15.1 3.9 22 1.4 6.9 4.1 17.7 6 24 1.9 6.3 5.5 16.7 7.9 23 2.5 6.3 7.8 17.8 11.7 25.5 4 7.7 10.7 19.2 14.9 25.5 4.2 6.3 13.6 18.9 20.8 28 7.3 9.1 15.7 19.1 18.8 22.3 3.2 3.2 7.7 7.3 10.2 9 2.5 1.7 4 3.2 3.5 3.4-0.5 0.2-6-1-12-2.8-6-1.7-16.9-5.2-24-7.6-7.1-2.5-18.9-7-26-10.1-7.1-3-18.2-8-24.5-11.2-6.3-3.2-16-8.3-21.5-11.5-5.5-3.2-16.3-10-24-15.3-7.7-5.2-19.4-13.8-26-19.1-6.6-5.2-19-16.5-27.6-25.1-8.5-8.5-20.4-21.6-26.3-29-5.9-7.4-14.5-19.1-19.1-26-4.5-6.9-11.9-19-16.4-27-4.5-8-11-21-14.5-29-3.5-8-8-19-10.1-24.5-2-5.5-5.2-15.2-7-21.5-1.8-6.3-4.5-17.1-5.9-24-1.4-6.9-3.2-17.9-4-24.5-0.9-6.6-2.1-17.4-2.8-24-0.9-9-1.2-97.5-1.8-695.5l3.3-0.3c1.7-0.2 7-0.5 11.7-0.5zm1201.5 138.3c27.5 0.2 41.7 0.7 51.5 1.9 7.4 0.9 18.9 2.5 25.5 3.7 6.6 1.1 19.2 3.7 28 5.9 8.8 2.2 22.1 6 29.5 8.5 7.4 2.6 17.8 6.5 23 8.7 5.2 2.2 15.3 7 22.5 10.7 7.1 3.6 18.8 10.5 26 15.2 7.1 4.7 17.5 12.1 23 16.5 5.5 4.4 14.7 12.5 20.4 17.9 5.7 5.5 14.6 14.9 19.9 21 5.2 6.1 12.7 15.5 16.7 21 4 5.5 10.3 14.9 14 21 3.7 6.1 9.4 16.4 12.7 23 3.3 6.6 8 16.7 10.3 22.5 2.4 5.8 5.9 15.3 7.9 21.2 2 6 5.2 16.8 7.1 24 1.9 7.3 4.3 17.8 5.4 23.3 1.1 5.5 2.9 16.7 4 25 1.1 8.2 2.5 21.1 3.1 28.5 0.5 7.4 1 24.1 1 37 0 12.9-0.5 29.3-1 36.5-0.6 7.2-1.7 18.4-2.6 25-0.9 6.6-2.9 18.5-4.5 26.5-1.5 8-4.7 21-6.9 29-2.3 8-6.4 20.6-9.1 28-2.8 7.4-8.8 21.2-13.4 30.5-4.5 9.3-11.8 22.6-16.2 29.5-4.3 6.9-11 16.8-14.9 22-3.8 5.2-11.1 14.2-16.1 20-5 5.8-14.8 16.1-21.9 23-7.1 6.9-17.8 16.5-23.9 21.4-6 4.8-16.8 12.7-24 17.5-7.2 4.8-18.8 11.9-26 15.8-7.2 4-19.1 9.9-26.5 13.1-7.4 3.3-20.7 8.4-29.5 11.5-8.8 3-22.3 7.1-30 9-7.7 2-20 4.7-27.2 6.1-7.3 1.4-20.2 3.5-28.5 4.5-8.4 1.1-23 2.5-32.3 3.2-10.7 0.7-28.3 1-47.5 0.6-17.6-0.3-36.2-1.2-44-2.1-7.4-0.9-19.1-2.5-26-3.7-6.9-1.1-19-3.6-27-5.5-8-1.9-19-4.8-24.5-6.5-5.5-1.7-16.3-5.6-24-8.6-7.7-3.1-19-8-25-11-6-3.1-15.7-8.4-21.5-11.8-5.8-3.5-15-9.6-20.5-13.6-5.5-3.9-13.8-10.4-18.5-14.4-4.7-4-14.2-13.1-21.1-20.1-6.9-7.1-16.3-17.6-20.9-23.4-4.6-5.8-10.9-14.3-14-19-3.1-4.7-8-12.6-11-17.5-2.9-4.9-7.2-12.8-9.5-17.5-2.3-4.7-6.1-12.8-8.3-18-2.2-5.2-6.3-16.3-9.2-24.5-2.8-8.3-6.6-21.3-8.5-29-1.9-7.7-4.6-20.5-5.9-28.5-1.4-8-3.2-21-4.1-29-0.8-8-1.8-25.3-2.1-38.5-0.4-14.7-0.2-31 0.5-42 0.7-9.9 2.1-24.8 3.2-33 1.1-8.3 3.3-21.3 4.9-29 1.6-7.7 4.8-20.5 7-28.5 2.3-8 6.6-21 9.7-29 3.1-8 7.9-19.4 10.7-25.5 2.9-6.1 8.1-15.9 11.5-22 3.5-6.1 9.9-16.2 14.2-22.5 4.3-6.3 11.7-16.4 16.5-22.5 4.9-6.1 16-18.2 24.8-27.1 8.9-8.8 21.1-20 27.1-24.8 6-4.8 17.5-13.1 25.5-18.5 8-5.3 19.9-12.5 26.5-16.1 6.6-3.5 19-9.4 27.5-13.1 8.5-3.7 21.6-8.7 29-11.2 7.4-2.4 18.7-5.9 25-7.6 6.3-1.6 18.3-4.4 26.5-6 8.3-1.7 22-3.9 30.5-5.1 8.5-1.1 20.5-2.4 26.5-2.9 6-0.5 28.1-0.8 49-0.6zm-49 145c-4.4 1.4-11.6 4.6-16 7.2-5.4 3.1-11.1 7.7-17.6 14.2-5.5 5.4-12 13.3-15.2 18.1-3 4.7-7.5 12.6-10 17.5-2.4 4.9-6.1 13.5-8.2 19-2 5.5-5.2 15.8-7 23-1.8 7.2-4.5 19.7-5.9 28-1.3 8.2-3.3 22.9-4.3 32.5-1.4 14-1.8 26.1-1.7 61 0 34.1 0.4 47 1.7 59.5 1 8.8 2.7 21.6 3.8 28.5 1.1 6.9 3.1 17.7 4.5 24 1.5 6.3 4.4 16.9 6.6 23.5 2.2 6.6 6.4 17.2 9.4 23.5 3.1 6.3 7.9 15.1 10.8 19.5 3 4.4 8.7 11.6 12.7 15.9 4.1 4.3 10.1 9.8 13.4 12.2 3.3 2.3 9.4 5.8 13.5 7.8 4.1 1.9 10.4 4.3 14 5.3 5.1 1.4 10.2 1.8 23.5 1.8 16.6-0.1 17.2-0.1 26.5-3.4 5.2-1.8 12.4-5 16-7.1 3.6-2.1 9-6 12-8.7 3.1-2.6 7.6-7.1 10-9.8 2.5-2.8 6.1-7.3 8.1-10 2-2.8 5.9-9.1 8.7-14 2.8-4.9 7.1-13.9 9.5-20 2.5-6.1 5.8-15.7 7.5-21.5 1.6-5.8 4.1-16.1 5.6-23 1.4-6.9 3.4-19.5 4.5-28 1.1-8.5 2.5-23.2 3.2-32.5 0.7-10.9 1-30.8 0.6-55.5-0.3-26.1-1-43.2-2.1-53-1-8-2.8-21-4.2-29-1.3-8-4-20.3-5.8-27.5-1.9-7.2-5.1-17.5-7.1-23-2.1-5.5-6-14.5-8.8-20-2.7-5.5-7.6-13.8-10.8-18.5-3.1-4.7-9-11.8-13.1-15.9-4-4-10.2-9.3-13.8-11.6-3.6-2.4-9.2-5.6-12.5-7-3.3-1.5-9.2-3.5-13-4.5-3.8-1-11.5-2-17-2.3-5.5-0.3-13.2-0.1-17 0.4-3.8 0.5-10.6 2-15 3.4zm1026.8-138.4c0.4-0.1 2.2 3.2 4.1 7.2 1.9 3.9 4.6 11 5.9 15.7 1.4 4.7 3.3 13.4 4.2 19.5 1 6.7 1.7 17.5 1.7 27.5 0 9.1-0.5 20.1-1.1 24.5-0.7 4.4-2.2 11.6-3.3 16-1.2 4.4-3.5 11.4-5.3 15.5-1.7 4.1-4.9 10.2-7 13.5-2.2 3.3-6.5 8.6-9.7 11.8-4.2 4.1-8.4 6.9-15 10.2-5.1 2.4-12.7 5.3-16.8 6.4-4.1 1.2-11.8 2.8-17 3.7-8.4 1.5-22.6 1.7-233 2.4v121l8.8-0.1c4.8 0 51.2-1.3 103.2-2.8 52-1.5 94.6-2.7 94.7-2.7 0.1 0.1 1.1 4.6 2.2 10.1 1.1 5.5 2.8 15.4 3.7 22 1.2 8.1 1.8 18.2 1.8 31 0 11.3-0.5 22.3-1.3 27-0.7 4.4-2.4 11.6-3.8 16-1.4 4.4-4 10.9-5.9 14.5-1.9 3.6-5.2 8.8-7.5 11.5-2.3 2.8-6.3 6.7-8.8 8.8-2.5 2.1-7.3 5.1-10.6 6.7-3.3 1.6-9.6 3.9-14 5.1-6.6 1.8-11.7 2.2-29 2.6-11.6 0.3-41.9 0-67.5-0.6-25.6-0.6-51-1.4-66.5-2.4l0.7 25.9c0.4 14.7 1.4 29.8 2.2 34.9 0.8 4.9 2.5 12.2 3.7 16 1.1 3.8 3.5 9.7 5.2 13 1.8 3.3 5.6 8.3 8.5 11.2 3.3 3.4 7.8 6.5 12.5 8.7 3.9 1.9 9.7 4.2 12.7 5 3 0.9 10 2.3 15.5 3.1 6.3 0.9 17.3 1.5 29.5 1.5 10.9 0 25.2-0.7 32.5-1.5 7.2-0.8 18.8-2.7 26-4.1 7.2-1.4 18.2-4.1 24.5-5.9 6.3-1.8 16-5 21.5-7 5.5-2 16.1-6.6 23.5-10.1 7.4-3.6 16.9-8.6 21-11.1 4.1-2.6 10.9-7.2 14.9-10.2 4.1-3.1 11-8.9 15.3-12.8 4.3-4 8-7.3 8.3-7.3 0.3 0 3.1 3.3 6.4 7.3 3.2 3.9 8.4 11 11.5 15.7 3.1 4.7 7.9 12.8 10.6 18 2.7 5.2 6.4 14.2 8.3 20 1.9 5.8 4.3 15.2 5.2 21 1.3 7.8 1.6 13.7 1.2 23-0.4 9.4-1.1 14.7-3.1 21.3-1.4 4.8-4.3 12.2-6.5 16.5-2.1 4.2-6.5 11.1-9.8 15.2-3.3 4.1-9 10.3-12.9 13.8-3.8 3.5-11.4 9.4-16.9 13-5.5 3.7-15.2 9.2-21.5 12.3-6.3 3.2-16 7.4-21.5 9.4-5.5 2-15.2 5.2-21.5 7-6.3 1.8-18 4.7-26 6.4-8 1.6-20.8 3.9-28.5 5-7.7 1.1-21 2.7-29.5 3.5-8.5 0.8-27.4 2-42 2.7-15.7 0.7-36.5 0.9-51 0.5-13.5-0.4-30.3-1.1-37.5-1.7-7.2-0.5-18.6-1.6-25.5-2.5-6.9-0.8-18.1-2.4-25-3.5-6.9-1.1-19-3.6-27-5.5-8-1.9-18.3-4.6-23-6.1-4.7-1.4-13.4-4.5-19.5-6.8-6.1-2.3-16.4-6.9-23-10.2-6.6-3.3-16.9-9.3-23-13.4-7.8-5.1-14.6-10.9-23.6-19.8-8.9-9-14.7-15.8-19.8-23.6-4.1-6.1-9-14.4-11.1-18.5-2-4.1-5.4-11.8-7.5-17-2-5.2-5.2-15.1-7.1-22-1.9-6.9-4.3-17.4-5.4-23.5-1.1-6.1-2.7-17.1-3.6-24.5-1.5-11.8-1.8-36.7-2.4-197.5-0.6-156-1-186.1-2.3-198-0.8-7.7-2.3-18.5-3.2-24-1-5.5-2.6-12.9-3.7-16.5-1.1-3.6-3.1-8.4-4.4-10.7-1.3-2.4-2.4-5.1-2.4-6 0-1 0.9-3.6 1.9-5.8 1.1-2.2 5-7.1 8.8-10.9 3.7-3.8 10.2-9 14.3-11.5 4.2-2.5 13.4-6.9 20.5-9.8 7.2-2.8 18.4-6.8 25-8.8 6.6-2 17.4-4.7 24-6 6.6-1.3 18.6-3.1 26.8-4 12.5-1.3 36.3-1.5 157-1.5 78.2-0.1 158.2-0.5 177.7-1 19.5-0.5 40.4-1.4 46.5-2 6.1-0.5 17.8-2 26-3.1 8.3-1.2 19.1-3.2 24-4.4 4.9-1.3 9.3-2.3 9.8-2.4zm693 0c0.4-0.1 2 3.4 3.6 7.7 1.6 4.2 4.1 11.8 5.5 16.7 1.3 4.9 3.2 12.6 4 17 0.8 4.4 2 12.4 2.6 17.8 0.5 5.3 1 15.9 1 23.5 0 7.5-0.7 18.4-1.6 24.2-0.8 5.8-2.9 14.8-4.7 20-1.8 5.2-4.8 12.2-6.7 15.5-1.9 3.3-6.7 9.2-10.5 13-3.8 3.8-9.7 8.6-13 10.5-3.3 1.9-9.8 4.9-14.5 6.7-4.7 1.7-13 4.1-18.5 5.2-5.5 1.1-16.3 2.5-24 3-7.7 0.6-34.4 1.1-104.5 1.1v205.8c0 125.6 0.4 212.5 1 223.2 0.6 9.6 2 23.8 3.1 31.5 1.1 7.7 3.1 18.3 4.4 23.5 1.3 5.2 3.3 12 6.3 20.5l-5.1 3.2c-2.9 1.8-8.1 4.5-11.7 6.1-3.6 1.7-10.8 4.3-16 6-5.2 1.7-14 4-19.5 5.1-5.5 1.1-15.8 2.8-23 3.6-7.2 0.9-23.6 1.9-36.5 2.2-14.3 0.3-29.6 0.1-39-0.6-8.5-0.7-20-1.9-25.5-2.7-5.5-0.9-12.9-2.3-16.5-3.1-3.6-0.8-10.1-2.6-14.5-4-4.4-1.4-11.8-4.4-16.4-6.7-4.6-2.2-11.2-6.5-14.7-9.3-3.5-2.9-8.4-7.9-10.9-11-2.5-3.2-6-8.7-7.9-12.3-1.9-3.6-4.6-10.3-6-15-1.5-4.7-3.4-12.1-4.3-16.5-1.5-7.2-1.7-28.8-2.3-449.5l-60.2 0.4c-46 0.3-64 0.8-75.8 2-8.5 0.9-20.2 2.5-26 3.6-5.8 1.1-13.2 2.9-16.5 4-5.7 2-6.1 2-7.4 0.3-0.7-1-2.6-4.7-4.3-8.3-1.6-3.6-4-10.1-5.3-14.5-1.2-4.4-3.1-12.7-4-18.5-1.1-7.1-1.7-16.2-1.7-28.5 0.1-13.4 0.6-20.9 2.1-29.5 1.1-6.3 3.4-15.6 5.1-20.5 1.8-4.9 4.5-11.5 6.1-14.5 1.6-3 5.1-8.4 7.8-12 2.7-3.6 7-8.3 9.7-10.5 2.7-2.2 7.4-5.5 10.4-7.3 3-1.8 9.1-4.7 13.5-6.4 4.4-1.7 13.2-4.2 31-8.2l235-0.6c163.8-0.5 239.7-1.1 250.5-1.9 8.5-0.6 21.1-1.8 28-2.7 6.9-0.8 16.3-2.3 21-3.4 4.7-1 10.3-2.5 12.5-3.4 2.2-0.8 4.3-1.5 4.8-1.5zm902.2 3c9.9 0 20 0.5 26.5 1.5 5.8 0.8 14.8 2.9 20 4.7 5.2 1.8 12.2 4.8 15.4 6.7 3.2 1.9 8.6 6.2 12 9.5 4 4 7.4 8.7 9.8 13.5 2.1 4.1 4.6 10.2 5.5 13.5 1.7 5.6 1.8 23.5 2.3 284.5 0.5 256.2 0.7 279.7 2.3 293 1 8 2.9 20 4.2 26.8 1.4 6.7 3.9 16.3 8.5 30.2l-4.2 2.4c-2.4 1.3-7 3.7-10.3 5.3-3.3 1.7-9.4 4.2-13.5 5.6-4.1 1.4-12.2 3.7-18 5.1-5.8 1.4-15.4 3.2-21.5 4.1-6.1 0.8-16.9 1.9-24 2.5-7.1 0.6-20.9 1-30.5 1-9.6 0-23.4-0.4-30.5-1-7.1-0.5-17.7-1.7-23.5-2.6-5.8-0.9-13.4-2.2-17-3.1-3.6-0.8-10.1-2.6-14.5-4-4.4-1.4-11.8-4.5-16.5-6.9-4.7-2.4-11.2-6.5-14.5-9.2-3.3-2.6-8.2-7.5-10.8-10.7-2.7-3.3-6.6-9.6-8.7-14-2.1-4.4-5-11.8-6.4-16.5-1.3-4.7-3-11.9-3.7-16-1-5.9-1.4-59.9-1.9-254-0.6-219.1-0.8-247.9-2.3-259.5-0.9-7.2-2.3-16.6-3.1-21-0.9-4.4-2.5-10.7-3.6-14-1.2-3.3-3.2-7.9-7-14.5l5.3-4.2c2.8-2.3 9.3-6.8 14.2-10 4.9-3.3 16.2-9.4 25-13.8 8.8-4.3 20.3-9.5 25.5-11.5 5.2-2.1 14.9-5.5 21.5-7.7 6.6-2.2 17.9-5.5 25-7.3 7.1-1.8 17.5-4.1 23-5 5.5-0.9 13.1-2 17-2.4 3.9-0.5 14.2-0.9 23-1zm330 0.1c9.9-0.1 22.7 0.3 28.5 0.8 5.8 0.6 14.8 1.8 20 2.6 5.2 0.9 13.3 2.7 18 4.1 4.7 1.3 11.6 3.7 15.5 5.3 3.9 1.6 9.8 4.6 13.2 6.7 3.5 2.1 9.1 5.8 12.5 8.3 3.5 2.5 12.4 10.6 19.9 18 7.5 7.4 17.4 18.3 22 24.2 4.6 5.8 49.1 66 189.4 256.6l0.3-97.6c0.2-61.7-0.1-104-0.8-114.7-0.5-9.3-1.9-23.1-3-30.5-1.1-7.4-3-17.3-4.1-22-1.2-4.7-3.7-12.1-5.5-16.5-1.8-4.4-3.3-8-3.1-8.1 0.1 0 2.9-1.9 6.2-4.1 3.3-2.2 9.6-5.8 14-8 4.4-2.2 13.2-6.1 19.5-8.6 6.3-2.5 16.2-5.9 22-7.7 5.8-1.7 15.9-4.2 22.5-5.6 9.3-2 16.1-2.6 30.5-3.1 13.7-0.4 21.1-0.1 28.5 1 5.5 0.8 13.5 2.7 17.8 4.1 4.2 1.4 9.6 3.8 12 5.2 2.3 1.5 5.7 4 7.5 5.8 1.8 1.7 4.6 5.1 6.2 7.6 1.6 2.5 4.1 7.9 5.5 12 1.4 4.1 3.2 11.8 4 17 1.3 8.1 1.5 45.1 1.5 250.5 0 142.8 0.4 249.4 1 261.5 0.6 11.3 1.7 28.8 2.5 39 0.9 10.2 2.2 23.2 3.1 29 0.8 5.8 2.7 17 6.9 39.2l-5 4.5c-2.8 2.5-7.9 6.3-11.5 8.4-3.6 2.1-11 5.6-16.5 7.7-5.5 2.2-14.9 5.4-21 7.1-6.1 1.7-15.3 3.9-20.5 5-5.2 1-13.8 2.5-19 3.2-5.7 0.9-18.5 1.4-32 1.4-12.9 0-26.6-0.6-32-1.4-5.2-0.7-13.8-2.2-19-3.3-5.2-1.1-14.4-3.6-20.5-5.5-6.1-1.9-15.5-5.7-21-8.3-5.5-2.6-14.3-7.6-19.5-11.1-5.8-3.8-13.8-10.6-20.6-17.4-10.1-10-20.3-23.6-116.8-155.5-58.2-79.5-106.2-144.9-106.8-145.5-0.6-0.6-0.8 47.7-0.5 129 0.3 115.1 0.5 131.7 2.1 144.5 0.9 8 2.8 19.9 4.1 26.5 1.3 6.6 3.1 14.2 5.5 22l-3.2 2.8c-1.8 1.6-6.9 4.6-11.3 6.7-4.4 2.1-10.7 4.8-14 5.9-3.3 1.1-10.3 3.1-15.5 4.4-5.2 1.4-14 3.3-19.5 4.3-7.7 1.4-15.1 1.8-32.5 1.8-13.5 0-25.7-0.5-30.5-1.2-4.4-0.7-12.3-2.4-17.5-3.8-5.2-1.4-12.9-4.3-17-6.4-4.6-2.4-9.5-6-12.6-9.2-2.8-2.9-6.3-7.6-7.9-10.3-1.6-2.8-3.9-7.9-5.2-11.5-1.2-3.6-3-10.3-3.9-15-1.6-7.9-1.8-27.5-2.4-266.5-0.5-188.5-0.9-261.5-1.8-271-0.7-7.2-2.1-19.3-3.2-27-1.1-7.7-2.9-17.4-4-21.5-1-4.1-3.1-9.8-7-17.5l5.2-4.9c2.9-2.7 9.4-7.2 14.3-10.1 4.9-2.9 13.1-7.1 18-9.3 4.9-2.2 15.1-6.1 22.5-8.6 7.4-2.6 19.4-6.3 26.5-8.1 7.1-1.8 17.7-4 23.5-4.9 5.8-0.9 12.1-1.7 14-1.9 1.9-0.2 11.6-0.5 21.5-0.5zm-614.5 1.9c0.8-0.1 3.3 1.4 5.5 3.2 2.2 1.9 6 6 8.5 9.3 2.5 3.2 7.1 10.8 10.2 16.9 3.1 6.1 6.9 15.3 8.6 20.5 1.7 5.2 3.7 14.2 4.6 20 0.9 5.8 1.6 16.3 1.6 23.5 0 7.2-0.5 17.7-1.1 23.5-0.5 5.8-1.9 15.2-3 21-1.2 5.8-3.7 15.4-5.6 21.5-2 6.1-5.3 14.8-7.5 19.5-2.2 4.7-5.6 11.2-7.6 14.5-2 3.3-57.7 82.4-123.9 175.7-66.2 93.4-120.3 170-120.3 170.3 0 0.3 38.4 0.3 85.3 0.2 72.7-0.3 87.3-0.6 99.2-2.1 7.7-0.9 20.8-3 29-4.7 8.3-1.6 22.3-5.4 31.3-8.4 8.9-3 16.3-5.5 16.4-5.5 0.2-0.1 2.2 3.9 4.5 8.7 2.3 4.8 5.1 11.7 6.3 15.3 1.2 3.6 3.3 11.2 4.6 17 1.3 5.8 2.9 17 3.6 25 0.9 11 0.9 17.2 0 26-0.6 6.3-2 15.1-3.2 19.5-1.1 4.4-3.8 11.6-5.9 16-2.1 4.4-6.3 11.2-9.4 15-3.1 3.8-8.5 9.2-11.9 12-3.4 2.7-9.6 6.9-13.8 9.2-4.1 2.4-12.9 6-19.5 8.2-6.6 2.2-17.6 5-37 8.5l-224.5 0.7c-200.7 0.5-225.8 0.7-249.5 3.9l-4.4-3.8c-2.5-2-6.3-6-8.4-8.7-2.2-2.8-5.5-8-7.3-11.8-1.9-3.7-4.7-10.6-6.4-15.5-1.6-4.8-3.7-12.1-4.6-16.2-1.4-5.6-1.8-11.9-1.8-25.5 0-14.9 0.4-19.8 2.3-28.5 1.2-5.8 3.4-13.9 4.7-18 1.4-4.1 5-12.7 8-19 3.1-6.3 8.7-16.9 12.6-23.5 3.9-6.6 11-17.8 15.8-25 4.8-7.2 60.8-86.3 240-339l-79.2-0.3c-50.1-0.2-85.4 0.1-95.8 0.8-9.1 0.6-23 2-31 3.1-8 1.2-20.3 3.6-27.5 5.4-7.2 1.7-17.2 4.9-22.2 6.9-5.1 2-9.5 3.5-9.7 3.3-0.3-0.1-2.3-4.9-4.6-10.7-2.3-5.8-5.7-15.9-7.5-22.5-1.8-6.6-4.1-16.9-5.1-23-1.3-7.7-1.8-16.3-1.9-29 0-13.1 0.5-20 1.7-25.5 0.9-4.1 3-11.1 4.7-15.5 1.6-4.4 4.9-10.7 7.2-14 2.2-3.3 5.7-7.7 7.7-9.8 2.1-2.2 6.4-5.8 9.7-8.2 3.3-2.3 8.7-5.6 12-7.3 3.3-1.6 10.3-4.4 15.5-6.1 5.2-1.6 14-3.9 19.5-5 5.5-1.1 15.2-2.4 21.5-3 7.4-0.7 79.9-1.2 202.5-1.5 123.2-0.3 196.5-0.8 206.5-1.5 8.5-0.6 21.3-1.8 28.5-2.7 7.1-0.8 14.6-1.9 16.5-2.3 1.9-0.5 4.2-1 5-1zm-3123 363.6c3 0.3 7.8 1.3 10.5 2.3 2.8 1.1 7.4 4 10.4 6.7 3.5 3.2 6.4 7 8.5 11.3 2.8 5.8 3.1 7.4 3.1 15.5 0 8.1-0.3 9.7-3.1 15.5-2.1 4.3-5 8.1-8.5 11.3-3.1 2.7-7.8 5.7-10.9 6.9-3.5 1.3-8 2.1-12.5 2.1-4.1 0.1-9-0.6-12-1.6-2.7-0.9-7.2-3.4-10-5.5-2.7-2.1-6.5-6-8.3-8.7-1.8-2.8-4-7.5-4.9-10.5-1.1-3.8-1.4-7.7-1-12.5 0.4-4.9 1.4-8.8 3.5-13 1.8-3.6 5-7.7 7.8-10.3 2.7-2.4 6.7-5.2 8.9-6.2 2.2-1.1 6-2.4 8.5-2.9 2.5-0.5 7-0.7 10-0.4z"/>
</svg>